<?xml version="1.0" standalone="no"?>
<!DOCTYPE svg PUBLIC "-//W3C//DTD SVG 1.1//EN" "http://www.w3.org/Graphics/SVG/1.1/DTD/svg11.dtd" >
<svg xmlns="http://www.w3.org/2000/svg" xmlns:xlink="http://www.w3.org/1999/xlink" version="1.1">
<metadata>
Created by FontForge 20201107 at Thu Jan 29 20:57:28 2004
 By 
Generated by Sultan Almaktari -2- Aden - Yemen -2003
</metadata>
<defs>
<font id="Sultanbold" horiz-adv-x="569" >
  <font-face 
    font-family="Sultan bold"
    font-weight="400"
    font-stretch="normal"
    units-per-em="2048"
    panose-1="0 0 0 0 0 0 0 0 0 0"
    ascent="1638"
    descent="-410"
    bbox="-190 -833 2890.09 1706"
    underline-thickness="67"
    underline-position="-534"
    unicode-range="U+F200-F2FF"
  />
<missing-glyph horiz-adv-x="1706" 
d="M106 0v1706h1494v-1706h-1494zM1494 106v1494h-1282v-1494h1282z" />
    <glyph glyph-name=".notdef" horiz-adv-x="1706" 
d="M106 0v1706h1494v-1706h-1494zM1494 106v1494h-1282v-1494h1282z" />
    <glyph glyph-name=".null" horiz-adv-x="2446" 
 />
    <glyph glyph-name="glyph2" horiz-adv-x="335" 
 />
    <glyph glyph-name="space" unicode="&#xf200;" horiz-adv-x="335" 
 />
    <glyph glyph-name="SOH" unicode="&#xf201;" horiz-adv-x="1634" 
d="M1206 1533q-5 -58 -25 -90t-50 -28l-20 4l-16 17q-5 -24 -28 -43q-22 -17 -42 -14q-22 3 -34 27l-6 20q-4 24 -3 41l3 25q1 9 10 32l8 18l13 2l-2 -38q-2 -18 1.5 -31.5t17.5 -18.5q18 -3 34 24q12 20 32 92l11 3l2 -30q2 -17 8 -31t18 -19q41 -5 51 107l15 5l3 -41z
M496 689q-65 -100 -292 -157q148 -48 226.5 -48.5t81.5 24.5zM623 1088q-7 -186 3.5 -343.5t39.5 -246.5t185 -98q190 -10 202.5 43.5t9.5 122t-49 515.5l134 257q48 -647 63 -717t57.5 -144t129 -80.5t95.5 20.5q-22 217 -60 664l142 257q40 -807 55 -892t-29 -249
t-104.5 -180.5t-109.5 -16.5q-234 38 -273 226q-32 -133 -85.5 -179.5t-179.5 -46.5t-222 71t-96 330q-52 -146 -94 -202q-74 -51 -268 -6q-190 50 -170 110q48 189 74 254t111 98l333 164l-2 94z" />
    <glyph glyph-name="STX" unicode="&#xf202;" horiz-adv-x="1394" 
d="M435 520.5q-35 -6.5 -84 -41.5q80 -63 181 -109q-21 44 -41.5 100.5t-55.5 50zM885 0q-163 -12 -231 71l-47 -130q-360 190 -372 226t30 236q-91 -71 -115.5 -107.5t-24.5 -60.5t15.5 -103.5t26.5 -253.5t-15.5 -233t-69.5 -118q-31 283 -65.5 484t-14 300.5t50 156.5
t64 102t93 92.5t154.5 94.5t144.5 51.5t90.5 -146t79 -191.5t70 -59t445 -12q-31 134 -133 267l116 244q81 -99 115.5 -170t50.5 -142.5t14 -131.5t-33.5 -223t-49 -203.5t-95.5 -40.5h-293zM1291 -320l-157 -179q-112 48 -191 146l161 194q67 -92 187 -161z" />
    <glyph glyph-name="ETX" unicode="&#xf203;" horiz-adv-x="1395" 
d="M1208 1110l-67 -84q-68 -85 -84 -100l-68 43q-77 50 -113 83l-62 -76l-43 -50l-79 50q-85 57 -117 90q17 36 80 113l74 86q26 -35 106 -95l63 -45q28 38 70 86l47 54q31 -41 115 -102zM435 520.5q-35 -6.5 -84 -41.5q80 -63 181 -109q-21 44 -41.5 100.5t-55.5 50zM885 0
q-163 -12 -231 71l-47 -130q-360 190 -372 226t30 236q-91 -71 -115.5 -107.5t-24.5 -60.5t15.5 -103.5t26.5 -253.5t-15.5 -233t-69.5 -118q-31 283 -65.5 484t-14 300.5t50 156.5t64 102t93 92.5t154.5 94.5t144.5 51.5t90.5 -146t79 -191.5t70 -59t445 -12
q-31 134 -133 267l116 244q81 -99 115.5 -170t50.5 -142.5t14 -131.5t-33.5 -223t-49 -203.5t-95.5 -40.5h-293z" />
    <glyph glyph-name="EOT" unicode="&#xf204;" horiz-adv-x="1380" 
d="M1050 1418l-67 -84q-68 -85 -84 -100l-79 50q-85 57 -117 90q17 36 80 113l74 86q31 -41 115 -102zM1208 1110l-67 -84q-68 -85 -84 -100l-68 43q-77 50 -113 83l-62 -76l-43 -50l-79 50q-85 57 -117 90q17 36 80 113l74 86q26 -35 106 -95l63 -45q28 38 70 86l47 54
q31 -41 115 -102zM435 520.5q-35 -6.5 -84 -41.5q80 -63 181 -109q-21 44 -41.5 100.5t-55.5 50zM885 0q-163 -12 -231 71l-47 -130q-360 190 -372 226t30 236q-91 -71 -115.5 -107.5t-24.5 -60.5t15.5 -103.5t26.5 -253.5t-15.5 -233t-69.5 -118q-31 283 -65.5 484
t-14 300.5t50 156.5t64 102t93 92.5t154.5 94.5t144.5 51.5t90.5 -146t79 -191.5t70 -59t445 -12q-31 134 -133 267l116 244q81 -99 115.5 -170t50.5 -142.5t14 -131.5t-33.5 -223t-49 -203.5t-95.5 -40.5h-293z" />
    <glyph glyph-name="ENQ" unicode="&#xf205;" horiz-adv-x="1252" 
d="M435 520.5q-35 -6.5 -84 -41.5q80 -63 181 -109q-21 44 -41.5 100.5t-55.5 50zM791 400h248l-60 403q-5 45 -18 98q-19 33 -30.5 48t-25 36.5t-10.5 51.5t44 128l64 135q14 0 16 -25.5t18 -61t32.5 -52.5t36.5 -34t165 -123l-115 -223l11 -88l6 -120l2 -59l3 -120
l-23 -209l-30 -110q-27 -83 -100 -75h-234h94q-163 -12 -231 71l-47 -130q-360 190 -372 226t30 236q-91 -71 -115.5 -107.5t-24.5 -60.5t15.5 -103.5t26.5 -253.5t-15.5 -233t-69.5 -118q-31 283 -65.5 484t-14 300.5t50 156.5t64 102t93 92.5t154.5 94.5t144.5 51.5
t90.5 -146t79 -191.5t70 -59t137 -12h-94z" />
    <glyph glyph-name="ACK" unicode="&#xf206;" horiz-adv-x="1361" 
d="M435 520.5q-35 -6.5 -84 -41.5q80 -63 181 -109q-21 44 -41.5 100.5t-55.5 50zM885 0q-163 -12 -231 71l-47 -130q-360 190 -372 226t30 236q-91 -71 -115.5 -107.5t-24.5 -60.5t15.5 -103.5t26.5 -253.5t-15.5 -233t-69.5 -118q-31 283 -65.5 484t-14 300.5t50 156.5
t64 102t93 92.5t154.5 94.5t144.5 51.5t90.5 -146t79 -191.5t70 -59t445 -12q-31 134 -133 267l116 244q81 -99 115.5 -170t50.5 -142.5t14 -131.5t-33.5 -223t-49 -203.5t-95.5 -40.5h-293zM1171 1179l-157 -179q-112 48 -191 147l161 194q67 -93 187 -162z" />
    <glyph glyph-name="parenleft" unicode="&#xf209;" horiz-adv-x="335" 
 />
    <glyph glyph-name="nonmarkingreturn" unicode="&#xf20c;" horiz-adv-x="30" 
d="M30 0h-30v1089h30v-1089z" />
    <glyph glyph-name="FF" unicode="&#xf20d;" horiz-adv-x="30" 
d="M107 1001l-20 -20l-57 57v-1038h-30v1037l-56 -56l-20 20l71 72l-71 71l20 20l71 -71l72 71l20 -20l-72 -71z" />
    <glyph glyph-name="SO" unicode="&#xf20e;" horiz-adv-x="30" 
d="M203 1073l-92 -92l-21 21l58 57h-118v-1059h-30v1089h145l-55 55l21 21z" />
    <glyph glyph-name="SI" unicode="&#xf20f;" horiz-adv-x="30" 
d="M30 0h-30v1059h-118l58 -57l-21 -21l-92 92l92 92l21 -21l-55 -55h145v-1089z" />
    <glyph glyph-name="DLE" unicode="&#xf210;" horiz-adv-x="1544" 
d="M1093 0l-427 -1q-165 12 -137 370l-41 -56q-41 -66 -93 -179t-116.5 -123.5t-99.5 -10.5h-223v400h325q139 27 197 113q-108 50 -212 51t-140 -26.5t-42 -2.5t14.5 134t71.5 171t129 63.5t152.5 -44t206 -91t298.5 -25.5q-14 -56 -84 -252q-75 0 -134 -7.5t-119 -40.5
q-12 -48 173 -43h301v-400zM1128.5 901q-16.5 28 -38.5 59q-26 40 -21 71t33 88.5t66 119.5q55 92 49.5 50t9.5 -84t127 -163l60 -72l-97 -197l-2 -157q9 -61 41 -125.5t105.5 -109.5t82.5 -92q9 -56 -5.5 -206.5t-44.5 -193.5q-102 95 -125 106t-43.5 14t-53.5 3t-115 -10
h-136v400h197q-19 54 -28.5 110.5t-27 208.5t-34 180z" />
    <glyph glyph-name="DC1" unicode="&#xf211;" horiz-adv-x="1542" 
d="M1093 0l-427 -1q-165 12 -137 370l-41 -56q-41 -66 -93 -179t-116.5 -123.5t-99.5 -10.5h-223v400h325q139 27 197 113q-108 50 -212 51t-140 -26.5t-42 -2.5t14.5 134t71.5 171t129 63.5t152.5 -44t206 -91t298.5 -25.5q-14 -56 -84 -252q-75 0 -134 -7.5t-119 -40.5
q-12 -48 173 -43h301v-400zM1128.5 901q-16.5 28 -38.5 59q-26 40 -21 71t33 88.5t66 119.5q55 92 49.5 50t9.5 -84t127 -163l60 -72l-97 -197l-2 -157q9 -61 41 -125.5t105.5 -109.5t82.5 -92q9 -56 -5.5 -206.5t-44.5 -193.5q-102 95 -125 106t-43.5 14t-53.5 3t-115 -10
h-136v400h197q-19 54 -28.5 110.5t-27 208.5t-34 180zM646 -261l-157 -179q-112 48 -191 146l161 194q67 -92 187 -161z" />
    <glyph glyph-name="DC2" unicode="&#xf212;" horiz-adv-x="1539" 
d="M777 580l-82 -1l-34 -3l-17 -97q-8 -52 39 -68l87 -8h432h42l-44 400q-3 45 -15 98q-16 33 -26 48t-21.5 36.5t-9.5 51.5t38 128l56 135q12 0 13.5 -25.5t15 -61t27.5 -52.5t31.5 -34t142.5 -123l-78 -223l8 -188l5 -120l3 -59l2 -120l-19 -109l-27 -110q-23 -83 -85 -75
h-471h-24h-19l-57 2q-14 0 -19.5 1t-16 4t-19.5 6.5t-20 10.5q-20 13 -35.5 31.5t-32.5 48.5q-11 26 -20 63q-3 17 -4.5 34.5t-1.5 42.5q0 119 26 196l24 71q7 20 11.5 33.5t7.5 21.5l-38 -11q-21 -7 -59 -19q-68 -24 -149 -99q-74 -67 -122 -142q-68 -102 -68 -222
q0 -122 93 -232q87 -74 185 -84q182 -21 396 -21q140 0 205 16q-31 -41 -91 -93q-224 -195 -476 -195q-229 0 -324 109q-100 115 -100 398q0 166 84 355q79 176 191 287q-175 49 -313 -63q5 153 45 296q33 127 155 127q70 0 209.5 -39t212.5 -39h243q-33 -87 -92 -315z
M503 121q-66 -84 -103 -128q-24 -29 -33 -37q-85 52 -124 80q-29 21 -53 46q35 46 54 71q59 77 85 108q19 -27 49 -51.5t125 -88.5z" />
    <glyph glyph-name="DC3" unicode="&#xf213;" horiz-adv-x="1459" 
d="M777 580l-82 -1l-34 -3l-17 -97q-8 -52 39 -68l87 -8h432h42l-44 400q-3 45 -15 98q-16 33 -26 48t-21.5 36.5t-9.5 51.5t38 128l56 135q12 0 13.5 -25.5t15 -61t27.5 -52.5t31.5 -34t142.5 -123l-78 -223l8 -188l5 -120l3 -59l2 -120l-19 -109l-27 -110q-23 -83 -85 -75
h-471h-24h-19l-57 2q-14 0 -19.5 1t-16 4t-19.5 6.5t-20 10.5q-20 13 -35.5 31.5t-32.5 48.5q-11 26 -20 63q-3 17 -4.5 34.5t-1.5 42.5q0 119 26 196l24 71q7 20 11.5 33.5t7.5 21.5l-38 -11q-21 -7 -59 -19q-68 -24 -149 -99q-74 -67 -122 -142q-68 -102 -68 -222
q0 -122 93 -232q87 -74 185 -84q182 -21 396 -21q140 0 205 16q-31 -41 -91 -93q-224 -195 -476 -195q-229 0 -324 109q-100 115 -100 398q0 166 84 355q79 176 191 287q-175 49 -313 -63q5 153 45 296q33 127 155 127q70 0 209.5 -39t212.5 -39h243q-33 -87 -92 -315z" />
    <glyph glyph-name="DC4" unicode="&#xf214;" horiz-adv-x="1484" 
d="M777 580l-82 -1l-34 -3l-17 -97q-8 -52 39 -68l87 -8h432h42l-44 400q-3 45 -15 98q-16 33 -26 48t-21.5 36.5t-9.5 51.5t38 128l56 135q12 0 13.5 -25.5t15 -61t27.5 -52.5t31.5 -34t142.5 -123l-78 -223l8 -188l5 -120l3 -59l2 -120l-19 -109l-27 -110q-23 -83 -85 -75
h-471h-24h-19l-57 2q-14 0 -19.5 1t-16 4t-19.5 6.5t-20 10.5q-20 13 -35.5 31.5t-32.5 48.5q-11 26 -20 63q-3 17 -4.5 34.5t-1.5 42.5q0 119 26 196l24 71q7 20 11.5 33.5t7.5 21.5l-38 -11q-21 -7 -59 -19q-68 -24 -149 -99q-74 -67 -122 -142q-68 -102 -68 -222
q0 -122 93 -232q87 -74 185 -84q182 -21 396 -21q140 0 205 16q-31 -41 -91 -93q-224 -195 -476 -195q-229 0 -324 109q-100 115 -100 398q0 166 84 355q79 176 191 287q-175 49 -313 -63q5 153 45 296q33 127 155 127q70 0 209.5 -39t212.5 -39h243q-33 -87 -92 -315z
M500 1179l-157 -179q-112 48 -191 147l161 194q67 -93 187 -162z" />
    <glyph glyph-name="NAK" unicode="&#xf215;" horiz-adv-x="1064" 
d="M543 127q-33 -109 -75.5 -193.5t-102.5 -153.5q-22 -27 -54 -45q-40 -23 -76 -23q-55 0 -197 83q-153 90 -189 163l6 8q7 7 14 7q36 -20 79 -30q20 -5 43 -8t49 -3q56 0 96.5 17t87.5 55q84 67 133.5 125.5t57.5 101.5q3 20 -33 105q-16 40 -41.5 94t-58.5 120l59 122
l67 134l83 -143q32 -53 74 -68l16 -4l22 -1q36 0 69.5 13t52 40.5t43.5 89.5l49 126q3 6 17 10l22 -126l22 -156l18 -112q23 -77 73 -75h180v-400h-225q-85 0 -115 68q-22 52 -43 160l-30 178q-36 -66 -82 -105t-93 -39q0 -23 -6 -67zM947 -220l-157 -179q-112 48 -191 146
l161 194q67 -92 187 -161z" />
    <glyph glyph-name="SYN" unicode="&#xf216;" horiz-adv-x="1056" 
d="M662 1064l-62 -76l-43 -50l-79 50q-85 57 -117 90q17 36 80 113l74 86q26 -35 106 -95l63 -45q28 38 70 86l47 54q31 -41 115 -102l78 -53l-67 -84q-68 -85 -84 -100l-68 43q-77 50 -113 83zM543 127q-33 -109 -75.5 -193.5t-102.5 -153.5q-22 -27 -54 -45
q-40 -23 -76 -23q-55 0 -197 83q-153 90 -189 163l6 8q7 7 14 7q36 -20 79 -30q20 -5 43 -8t49 -3q56 0 96.5 17t87.5 55q84 67 133.5 125.5t57.5 101.5q3 20 -33 105q-16 40 -41.5 94t-58.5 120l59 122l67 134l83 -143q32 -53 74 -68l16 -4l22 -1q36 0 69.5 13t52 40.5
t43.5 89.5l49 126q3 6 17 10l22 -126l22 -156l18 -112q23 -77 73 -75h180v-400h-225q-85 0 -115 68q-22 52 -43 160l-30 178q-36 -66 -82 -105t-93 -39q0 -23 -6 -67z" />
    <glyph glyph-name="ETB" unicode="&#xf217;" horiz-adv-x="1093" 
d="M741 -368l-62 -76l-43 -50l-79 50q-85 57 -117 90q17 36 80 113l74 86q26 -35 106 -95l63 -45q33 44 70 87l47 53q31 -41 115 -102l78 -53l-67 -84q-68 -85 -84 -100l-68 43q-77 50 -113 83zM594 127q-33 -109 -75.5 -193.5t-102.5 -153.5q-22 -27 -54 -45
q-40 -23 -76 -23q-55 0 -197 83q-153 90 -189 163l6 8q7 7 14 7q36 -20 79 -30q20 -5 43 -8t49 -3q56 0 96.5 17t87.5 55q84 67 133.5 125.5t57.5 101.5q3 20 -33 105q-16 40 -41.5 94t-58.5 120l59 122l67 134l83 -143q32 -53 74 -68l16 -4l22 -1q36 0 69.5 13t52 40.5
t43.5 89.5l49 126q3 6 17 10l22 -126l22 -156l18 -112q23 -77 73 -75h180v-400h-225q-85 0 -115 68q-22 52 -43 160l-30 178q-36 -66 -82 -105t-93 -39q0 -23 -6 -67z" />
    <glyph glyph-name="CAN" unicode="&#xf218;" horiz-adv-x="1794" 
d="M340 567q42 -61 149 -139q-28 109 -35.5 137t-23 45.5t-40 6t-50.5 -49.5zM1731 711q15 -27 23 -146.5t-11.5 -252.5t-45 -199.5t-52 -86t-88 -8t-167.5 74.5q-46 -55 -73.5 -68.5t-72.5 -19t-125 -5.5t-133 31q-44 -29 -139 -31h-88q-108 0 -173 78q-56 -118 -79 -118
t-96 57.5t-196 188.5q-56 -177 -151 -208h-89l-2 402h75q51 0 78 21t56.5 78t75 125.5t87 111.5t76 56t59 9.5t38 -22.5t34 -92.5t41.5 -131.5t73.5 -110t129.5 -45h135q80 10 110.5 43t50.5 85t97 122q-6 -55 -29.5 -126t-40.5 -124q153 -11 206.5 13.5t99.5 176.5
q54 70 106 90q-77 -199 -72.5 -216t38.5 -40.5t78 -36t74 -4.5q-2 77 -16 126z" />
    <glyph glyph-name="EM" unicode="&#xf219;" horiz-adv-x="1827" 
d="M340 567q42 -61 149 -139q-28 109 -35.5 137t-23 45.5t-40 6t-50.5 -49.5zM1731 711q15 -27 23 -146.5t-11.5 -252.5t-45 -199.5t-52 -86t-88 -8t-167.5 74.5q-46 -55 -73.5 -68.5t-72.5 -19t-125 -5.5t-133 31q-44 -29 -139 -31h-88q-108 0 -173 78q-56 -118 -79 -118
t-96 57.5t-196 188.5q-56 -177 -151 -208h-89l-2 402h75q51 0 78 21t56.5 78t75 125.5t87 111.5t76 56t59 9.5t38 -22.5t34 -92.5t41.5 -131.5t73.5 -110t129.5 -45h135q80 10 110.5 43t50.5 85t97 122q-6 -55 -29.5 -126t-40.5 -124q153 -11 206.5 13.5t99.5 176.5
q54 70 106 90q-77 -199 -72.5 -216t38.5 -40.5t78 -36t74 -4.5q-2 77 -16 126zM1566 1262l-67 -84q-68 -85 -84 -100l-79 50q-85 57 -117 90q17 36 80 113l74 86q31 -41 115 -102zM1724 954l-67 -84q-68 -85 -84 -100l-68 43q-77 50 -113 83l-62 -76l-43 -50l-79 50
q-85 57 -117 90q17 36 80 113l74 86q26 -35 106 -95l63 -45q28 38 70 86l47 54q31 -41 115 -102z" />
    <glyph glyph-name="SUB" unicode="&#xf21a;" horiz-adv-x="1201" 
d="M474 743q-45 -29 -142 -167q-31 -44 -83 -131q23 0 105 43.5t102 65.5q26 29 26 125q0 44 -8 64zM239 60q2 -26 40 -75.5t60 -63.5q43 -25 124 -25h22q0 37 -30 75q-26 32 -59 48q-98 44 -142 44q-7 0 -15 -3zM207 610q217 359 399 359l20 -81q0 -114 -19 -196
q-16 -66 -47 -153l-52 -139h452l-43 403q-3 45 -15 98q-16 33 -26 48t-22 36.5t-9.5 51.5t37.5 128l56 135q12 0 14 -25.5t15.5 -61t27.5 -52.5t31.5 -34t142.5 -123l-79 -223l9 -88l5 -120l2 -59l3 -120l-19 -109l-27 -210q-23 -83 -85 -75h-349q-52 -181 -94 -256
q-72 -133 -181 -133q-117 0 -198 123q-77 116 -77 266h-152v400h187q25 74 36 106q32 62 57 104z" />
    <glyph glyph-name="FS" unicode="&#xf21c;" horiz-adv-x="1435" 
d="M780 -499l-60 -53q-23 -20 -54 -41q-9 -6 -22 -15q-17 5 -25 7q-25 8 -36 13q-35 16 -59.5 29t-41.5 24l-57 -49q-11 -9 -24 -16.5t-14 -7.5q-13 6 -37 13t-34 12q-76 36 -105 57q14 21 72 70l66 55q18 -17 52.5 -37.5t96.5 -50.5l65 54l44 34q25 -24 103 -65zM854 -259
q-71 -70 -231 -123q-112 -17 -176 -17q-184 10 -281 73q-114 91 -124 208q-20 263 181 536q85 105 105 114.5t25 -16.5q-90 -138 -109 -204q-48 -124 -48 -191q-10 -87 91 -162q98 -57 207 -57q70 -10 190 14q79 21 156 65q-32 69 -161 113l-133 2q48 194 152 304h65h359
l33 1h42l-54 392q-3 45 -15 98q-26 33 -36 48t-21.5 36.5t-9.5 51.5t48 128l76 135q12 0 13.5 -25.5t15 -61t27.5 -52.5t31.5 -34t152.5 -123l-98 -223l8 -178l15 -120l3 -59l2 -70l-29 -159l-27 -110q-23 -83 -85 -75h-92h-87h-41q-5 -33 -18 -64.5t-37 -92t-85 -102.5z
" />
    <glyph glyph-name="GS" unicode="&#xf21d;" horiz-adv-x="1262" 
d="M909 704.5q50 -10.5 79.5 -65.5t53.5 -110.5t56 -86t103 -42.5h86v-400h-110q-100 10 -146 80.5t-92 168.5t-83.5 114t-80.5 1t-79.5 -37t-91.5 -76q57 -43 171.5 -62t134 -61.5t-0.5 -130t-67 -194.5q-96 -193 -316 -256l-130 -27q-423 -5 -407 377q8 205 48 333
q34 121 64.5 194t58.5 105.5t30 17.5t-26 -86q-94 -270 -69 -414t137 -188q105 -40 177 -39.5t164 15t171 62.5q-10 2 -129.5 25t-136.5 95.5t9 187.5t63 186.5t95 146t136 126t128 41zM772 -649q-67 -86 -114 -142q-28 -34 -37 -42q-145 93 -181 126q-14 -18 -39 -48
l-66 -78q-94 58 -138 90q-33 24 -58 50l154 199q18 -24 72 -68q49 -40 97 -72q28 38 68 85q34 40 49 55q21 -29 53 -55q38 -31 140 -100zM1254 -261l-157 -179q-112 48 -191 146l161 194q67 -92 187 -161z" />
    <glyph glyph-name="RS" unicode="&#xf21e;" horiz-adv-x="1257" 
d="M1206 984q-67 -86 -114 -142q-28 -34 -37 -42q-145 93 -181 126q-14 -18 -39 -48l-66 -78q-94 58 -138 90q-33 24 -58 50l154 199q18 -24 72 -68q49 -40 97 -72q28 38 68 85q34 40 49 55q21 -29 53 -55q38 -31 140 -100zM772 -649q-67 -86 -114 -142q-28 -34 -37 -42
q-145 93 -181 126q-14 -18 -39 -48l-66 -78q-94 58 -138 90q-33 24 -58 50l154 199q18 -24 72 -68q49 -40 97 -72q28 38 68 85q34 40 49 55q21 -29 53 -55q38 -31 140 -100zM909 704.5q50 -10.5 79.5 -65.5t53.5 -110.5t56 -86t103 -42.5h86v-400h-110q-100 10 -146 80.5
t-92 168.5t-83.5 114t-80.5 1t-79.5 -37t-91.5 -76q57 -43 171.5 -62t134 -61.5t-0.5 -130t-67 -194.5q-96 -193 -316 -256l-130 -27q-423 -5 -407 377q8 205 48 333q34 121 64.5 194t58.5 105.5t30 17.5t-26 -86q-94 -270 -69 -414t137 -188q105 -40 177 -39.5t164 15
t171 62.5q-10 2 -129.5 25t-136.5 95.5t9 187.5t63 186.5t95 146t136 126t128 41z" />
    <glyph glyph-name="US" unicode="&#xf21f;" horiz-adv-x="1268" 
d="M778 -649q-67 -86 -114 -142q-28 -34 -37 -42q-145 93 -181 126q-14 -18 -39 -48l-66 -78q-94 58 -138 90q-33 24 -58 50l154 199q18 -24 72 -68q49 -40 97 -72q28 38 68 85q34 40 49 55q21 -29 53 -55q38 -31 140 -100zM1060 979l-157 -179q-112 48 -191 147l161 194
q67 -93 187 -162zM915 704.5q50 -10.5 79.5 -65.5t53.5 -110.5t56 -86t103 -42.5h86v-400h-110q-100 10 -146 80.5t-92 168.5t-83.5 114t-80.5 1t-79.5 -37t-91.5 -76q57 -43 171.5 -62t134 -61.5t-0.5 -130t-67 -194.5q-96 -193 -316 -256l-130 -27q-423 -5 -407 377
q8 205 48 333q34 121 64.5 194t58.5 105.5t30 17.5t-26 -86q-94 -270 -69 -414t137 -188q105 -40 177 -39.5t164 15t171 62.5q-10 2 -129.5 25t-136.5 95.5t9 187.5t63 186.5t95 146t136 126t128 41z" />
    <glyph glyph-name="ãÓÇÝÉ" unicode="&#xf220;" horiz-adv-x="335" 
 />
    <glyph glyph-name="equal" unicode="&#xf221;" horiz-adv-x="639" 
d="M105 850l128 259q78 -145 114 -287q32 -129 32 -251q0 -47 -4.5 -92.5t-14.5 -92.5q-16 -77 -47 -146q-24 -57 -57 -102l-19 17q2 12 4.5 42t5.5 53q0 19 1.5 51t1.5 38q0 101 -19 191q-16 82 -51 166q-27 66 -75 154zM399 -46l-149 -179l-150 174l147 184z" />
    <glyph glyph-name="greater" unicode="&#xf222;" horiz-adv-x="361" 
d="M342 811l-39 -273h-65l-48 273h152zM158 811l-39 -273h-64l-50 273h153z" />
    <glyph glyph-name="question" unicode="&#xf223;" horiz-adv-x="834" 
d="M778 -151h-53l-340 400l340 393h47l-246 -393zM471 -151h-49l-338 400l340 393h47l-246 -393z" />
    <glyph glyph-name="at" unicode="&#xf224;" horiz-adv-x="834" 
d="M762 238l-338 -389h-49l246 389l-254 404h45zM459 238l-336 -389h-49l243 389l-251 404h45z" />
    <glyph glyph-name="A" unicode="&#xf225;" horiz-adv-x="946" 
d="M293 863q0 -37 -26 -63.5t-60 -26.5q-37 0 -64 26q-26 28 -26 64t27 62t63 26q35 0 60 -26q26 -24 26 -62zM760 1031l-510 -1325h-68l506 1325h72zM834 -114q0 -36 -24 -60t-62 -24q-37 0 -64 24.5t-27 59.5t27.5 61.5t65.5 26.5q36 0 60 -24.5t24 -63.5z" />
    <glyph glyph-name="B" unicode="&#xf226;" horiz-adv-x="946" 
d="M802 58l-58 -57l-277 275l-277 -275l-59 57l275 278l-275 278l62 56l274 -276l277 276l58 -56l-279 -278z" />
    <glyph glyph-name="C" unicode="&#xf227;" horiz-adv-x="946" 
d="M549 611q0 -34 -24 -60.5t-59 -26.5t-61 25q-25 27 -25 62q0 34 24.5 58.5t61.5 24.5q33 0 58 -24t25 -59zM835 291h-730v83h730v-83zM549 54q0 -35 -24.5 -60.5t-58.5 -25.5q-36 0 -61 25t-25 61t26 60.5t60 24.5q33 0 58 -24t25 -61z" />
    <glyph glyph-name="D" unicode="&#xf228;" 
d="M526 980q-159 -160 -235 -314.5t-76 -318.5q0 -151 74 -311q39 -87 87 -156q44 -63 146 -178l-8 -12q-53 34 -85 56q-37 26 -60 45q-43 34 -101 97q-93 105 -138.5 219.5t-45.5 243.5q0 124 40 225t132 207q48 55 102 101q27 23 61.5 47.5t90.5 60.5z" />
    <glyph glyph-name="E" unicode="&#xf229;" 
d="M492 357q0 -254 -187 -463q-51 -57 -100 -97q-42 -34 -144 -101l-12 12l47 53l56 66q101 127 154.5 261.5t53.5 264.5q0 163 -74.5 315.5t-236.5 317.5l17 12q102 -68 150.5 -108.5t100.5 -100.5q90 -104 132 -208q21 -52 32 -107t11 -117z" />
    <glyph glyph-name="F" unicode="&#xf22a;" horiz-adv-x="3088" 
d="M978 239q44 0 117 30q78 33 103 65q0 36 -24 124q0 14 30 72q29 59 35 59q11 0 23 -46q12 -48 12 -82q0 -39 -21 -89q-24 -61 -39 -83q-14 -31 -40 -66q-27 -36 -71 -63q-44 -31 -91 -47q-52 -20 -87 -20q-56 0 -100 39q-41 37 -41 94q0 63 32 126q24 55 59 102
q-124 -18 -330.5 -26.5t-294.5 49.5q-71 44 -56.5 124t59.5 132q23 27 23 -3q-79 -108 -7.5 -147.5t198 -44t259.5 10t177 17.5q136 6 165.5 -56t-8.5 -153q-21 -55 -41 -76q-21 -27 -21 0q38 65 26.5 126t-97.5 54q-21 -21 -49 -57q-41 -55 -41 -73q0 -92 141 -92z
M2885 404q5 0 5 -8q2 -18 -41 -110q-45 -93 -56 -93q-6 0 -6 6q0 12 7 35q6 24 6 29q-119 -41 -255.5 -59.5t-264.5 -33.5h-2h-1l-6 6l-14 163q-4 0 -19 -35q-19 -40 -38 -64q-100 -82 -213 -112q-112 -33 -188 -33q-48 0 -76 24q-33 23 -36 65q-3 24 3 41v1
q-47 -18 -108 -34l-6 -2l-44 -8l-89 -12q-2 0 -3.5 1l-1.5 1q-4 4 -4 6l-41 484q0 16 9 25l66 100q10 0 13 -10l39 -469h14l28 5q58 6 98 18q25 5 50 27l4 9q52 82 78 120q31 47 72 81q41 31 82 31q40 0 63 -19q19 -25 22 -52q5 -47 -79 -150q-56 -64 -91 -85
q-41 -24 -103 -44l2 -13q12 -4 71 -4q33 0 94 8q59 12 109 29q107 42 161 79q58 33 56 54l-26 304q2 18 10 25l68 100q10 0 10 -10l48 -522q127 5 266 30t258 75zM1737 361q100 26 191 67q0 15 -17 27q-18 11 -34 11q-84 0 -140 -105zM1782 877l25 -282q-3 -20 -9 -27
l-66 -99q-10 0 -12 9l-22 282q0 18 7 26l65 100q9 0 12 -9z" />
    <glyph glyph-name="G" unicode="&#xf22b;" horiz-adv-x="946" 
d="M835 291h-321v-323h-84v323h-325v83h325v328h84v-328h321v-83z" />
    <glyph glyph-name="H" unicode="&#xf22c;" 
d="M428 -3q0 -44 -30.5 -73.5t-73.5 -29.5q-72 0 -119 68t-47 172q0 98 44 182.5t130 149.5l24 -33q-73 -79 -102 -136.5t-29 -125.5q0 -18 1 -27t8.5 -32.5t17.5 -32.5l32 15q21 9 42 9q43 0 72.5 -32t29.5 -74z" />
    <glyph glyph-name="I" unicode="&#xf22d;" horiz-adv-x="408" 
d="M495 0h-495v227h495v-227z" />
    <glyph glyph-name="J" unicode="&#xf22e;" horiz-adv-x="516" 
d="M268 0q-127 37 -207 164l187 164q80 -88 198 -165z" />
    <glyph glyph-name="K" unicode="&#xf22f;" horiz-adv-x="619" 
d="M528 862l-359 -864l-169 -1l358 863z" />
    <glyph glyph-name="L" unicode="&#xf230;" horiz-adv-x="624" 
d="M563 468l-202 -167q-85 132 -198 228l199 173q101 -87 201 -234z" />
    <glyph glyph-name="M" unicode="&#xf231;" horiz-adv-x="768" 
d="M490.5 65.5q-22.5 -52.5 -41.5 -66.5q-98 618 -285 893l119 307q86 -111 179 -404.5t72 -485t-43.5 -244z" />
    <glyph glyph-name="N" unicode="&#xf232;" horiz-adv-x="768" 
d="M698 1100q10 -184 -55 -288.5t-205 -94.5q15 -30 38.5 -123.5t26.5 -220.5t-26 -246.5t-83 -126.5q-57 400 -141.5 587.5t-180.5 308.5l122 298q116 -184 262 -187q78 0 140 62l84 131q20 0 18 -100z" />
    <glyph glyph-name="O" unicode="&#xf233;" horiz-adv-x="805" 
d="M743 1010q0 -87 -24 -164q-27 -63 -88 -84l-16 -1q-11 0 -22 1.5t-27 9.5q-23 11 -40 41q-18 -49 -41 -63q-6 -5 -71 -29q32 -76 46 -154l19 -130q6 -54 6 -99v-16v-14v-12l-1 -42q0 -22 -4 -41q0 -12 -1 -25.5t-4 -26.5q-3 -25 -12 -57q-21 -104 -39 -104l-55 193
l-28 101l-30 93q-15 48 -36 104.5t-56 141.5q-30 78 -75 152q-41 67 -105 139l26 51l37 88q39 102 62 131l39 -66l47 -69q47 -62 127 -62q50 0 76 95.5t41 101.5l32 -94q30 -92 92 -92q25 0 48 41q9 17 12 35l4 40q0 14 2 18l8 19l27 31q24 -32 24 -182z" />
    <glyph glyph-name="P" unicode="&#xf234;" horiz-adv-x="778" 
d="M724 302q-105 -246 -228 -273.5t-227 -29.5t-151 51t-9 178t196 303q-89 73 -177.5 117.5t-58.5 142t169.5 235.5t281.5 174l-57 -176q-158 -69 -244 -150q172 -91 245.5 -147t37.5 -110.5t-189 -217.5q-94 -103 -43.5 -122.5t163.5 -18t291 43.5z" />
    <glyph glyph-name="Q" unicode="&#xf235;" horiz-adv-x="866" 
d="M794 376q-2 -145 -29.5 -217.5t-89.5 -114t-250 -45.5q-131 2 -207 45.5t-101 113t-3 209.5q23 298 145 541t218 242q123 -2 223 -230q48 -115 72 -239t22 -305zM697 396q-18 172 -105 315q-43 71 -84.5 107t-76.5 31.5t-71.5 -51.5t-91 -149t-65.5 -237q2 -37 83 -75
t167 -40q107 -1 172 39t72 60z" />
    <glyph glyph-name="R" unicode="&#xf236;" horiz-adv-x="905" 
d="M839 233l-149 -233q-70 61 -107 170q-57 159 -63 190.5t-16 87t-14 133.5t8 308q-72 -59 -174 -74t-202 7q-77 24 -75.5 112.5t44.5 256.5q52 -50 156.5 -69.5t198.5 5t182 73.5l1 -78l1 -56l7 -180q0 -69 7.5 -126.5t24.5 -137.5q12 -63 30 -135.5t42 -111.5l55 -88z
" />
    <glyph glyph-name="S" unicode="&#xf237;" horiz-adv-x="797" 
d="M752 874q-105 -96 -189 -294q-37 -93 -66 -178l-48 -156l-27 -110q-12 -48 -21 -70l-12 -36l-10 -30l-13 39l-12 39q-5 39 -19 87l-26 95q-33 150 -106 326q-68 179 -187 288l58 320q92 -18 186 -246q38 -91 74 -225q30 -119 45 -238q4 43 6.5 66t7.5 49l11 62l16 55
q28 111 100 280.5t174 196.5z" />
    <glyph glyph-name="T" unicode="&#xf238;" horiz-adv-x="805" 
d="M752 322l-58 -322q-87 18 -188 246q-42 102 -77 223q-30 113 -48 240q-21 -235 -113 -458t-194 -251l-58 322q107 94 162 233q17 44 45 121q23 63 41 117l40 146l28 105q33 144 47 150l10 -42l12 -38l37 -131l22 -83l9 -34l23 -63q12 -45 36 -108q11 -31 23 -61.5
t29 -68.5q26 -65 68 -125q22 -31 47 -59t57 -59z" />
    <glyph glyph-name="U" unicode="&#xf239;" horiz-adv-x="797" 
d="M735 219l-67 -102l-70 -117q-66 36 -105.5 204.5t-61.5 445.5q-31 -181 -146 -189t-182.5 48t-67.5 139.5t21 165t91 231t164.5 164.5t139.5 -73.5t79 -250.5l52 -281l12 -60l14 -51q15 -48 33 -87l53 -113l18 -36zM396 762q-16 110 -61 154t-99.5 21t-93.5 -77
q27 -90 102.5 -113.5t151.5 15.5z" />
    <glyph glyph-name="V" unicode="&#xf23a;" 
d="M399 100q0 -41 -28 -70.5t-70 -29.5t-72 29q-28 30 -28 71t27.5 71.5t65.5 30.5q46 0 75.5 -29.5t29.5 -72.5zM400 498q0 -41 -28 -70.5t-70 -29.5t-72 28q-28 31 -28 72t27.5 71.5t65.5 30.5q46 0 75.5 -29.5t29.5 -72.5z" />
    <glyph glyph-name="W" unicode="&#xf23b;" 
d="M428 445q0 -44 -30.5 -73.5t-73.5 -29.5q-72 0 -119 68t-47 172q0 98 44 182.5t130 149.5l24 -33q-73 -79 -102 -136.5t-29 -125.5q0 -18 1 -27t8.5 -32.5t17.5 -32.5l32 15q21 9 42 9q43 0 72.5 -32t29.5 -74zM397 141q0 -36 -24.5 -62t-61.5 -26t-63 25q-25 27 -25 63
t24 63t58 27q40 0 66 -26t26 -64z" />
    <glyph glyph-name="X" unicode="&#xf23c;" 
d="M527 1169q-65 -59 -93 -101q-39 -59 -39 -120l1 -22q61 0 92 -28t31 -73q0 -39 -28 -65.5t-68 -26.5q-47 0 -80 40q-15 20 -23 45.5t-8 58.5q0 91 42 164.5t142 160.5zM257 1169q-65 -59 -93 -101q-39 -59 -39 -120l1 -22q61 0 92 -28t31 -73q0 -39 -28 -65.5t-68 -26.5
q-47 0 -80 40q-15 20 -23 45.5t-8 58.5q0 91 42 164.5t142 160.5z" />
    <glyph glyph-name="Y" unicode="&#xf23d;" horiz-adv-x="946" 
d="M836 539h-731v86h731v-86zM836 362h-731v86h731v-86z" />
    <glyph glyph-name="Z" unicode="&#xf23e;" 
d="M527 1058q0 -89 -41 -162t-143 -163l-31 33q65 59 93 101q39 59 39 120l-1 22q-62 0 -92.5 27.5t-30.5 73.5q0 38 27 65t69 27q48 0 79 -40q16 -20 24 -45t8 -59zM257 1058q0 -89 -41 -162t-143 -163l-31 33q65 59 93 101q39 59 39 120l-1 22q-62 0 -92.5 27.5
t-30.5 73.5q0 38 27 65t69 27q48 0 79 -40q16 -20 24 -45t8 -59z" />
    <glyph glyph-name="bracketleft" unicode="&#xf23f;" horiz-adv-x="657" 
d="M514 967l3 -42q0 -33 -2 -49t-9 -51l-17 -77q-8 0 -14 2q-12 5 -15 12q-6 30 -13 42q-5 13 -23 42t-103 78q-72 41 -94 46q-9 -14 -21 -45.5t-12 -50.5q0 -16 6 -31q12 -27 29.5 -42.5t53.5 -29.5q75 -32 127.5 -82.5t52.5 -97.5q0 -55 -23 -121q-19 -57 -44 -99
q-6 -3 -14 0l-11 11l13 27q3 8 5 23q0 14 -7 25q-18 29 -47 50q-10 8 -53 29l-118 52q-65 34 -74 84l-3 40q0 117 60 298t95 181q57 0 158.5 -83t113.5 -141zM500 163l-165 -198l-167 193l163 205z" />
    <glyph glyph-name="backslash" unicode="&#xf240;" horiz-adv-x="396" 
d="M478 0h-581v401l581 -1v-400z" />
    <glyph glyph-name="bracketright" unicode="&#xf241;" horiz-adv-x="363" 
d="M330 467q3 -104 -4 -167q-13 -96 -35.5 -147t-43 -85t-47.5 -71l-104 936q1 24 40 125l27 71q17 45 41 89l20 45l18 30l29 -189l35 -284l3 -46l11 -150l4 -93z" />
    <glyph glyph-name="asciicircum" unicode="&#xf242;" horiz-adv-x="554" 
d="M290 1300q39 -819 60 -900h78h162v-400h-218h-182l-67 1031z" />
    <glyph glyph-name="underscore" unicode="&#xf243;" horiz-adv-x="451" 
d="M299 1432q0 -3 -1 -5q-2 -7 -6.5 -17t-9.5 -26l-11 -2q-22 -5 -41 -15q-10 -5 -19 -8t-18 -13q-39 -29 -81 -74q4 24 20 46l40 44h-60q-26 1 -32 17q-6 23 -2 44q4 23 17.5 51t34 45.5t49.5 24.5q6 1 16.5 0.5t20.5 -6t13 -20.5q2 -32 -18 -55q-34 39 -85 8
q-13 -9 -21 -28q36 -26 105 -21l77 9l3 -1l5 3zM351 467q3 -104 -4 -167q-13 -96 -35.5 -147t-43 -85t-47.5 -71l-104 936q1 24 40 125l27 71q17 45 41 89l20 45l18 30l29 -189l35 -284l3 -46l11 -150l4 -93z" />
    <glyph glyph-name="grave" unicode="&#xf244;" horiz-adv-x="565" 
d="M290 1432q0 -3 -1 -5q-2 -7 -6.5 -17t-9.5 -26l-11 -2q-22 -5 -41 -15q-10 -5 -19 -8t-18 -13q-39 -29 -81 -74q4 24 20 46l40 44h-60q-26 1 -32 17q-6 23 -2 44q4 23 17.5 51t34 45.5t49.5 24.5q6 1 16.5 0.5t20.5 -6t13 -20.5q2 -32 -18 -55q-34 39 -85 8
q-13 -9 -21 -28q36 -26 105 -21l77 9l3 -1l5 3zM301 1300q39 -819 60 -900h78h162v-400h-218h-182l-67 1031z" />
    <glyph glyph-name="a" unicode="&#xf245;" horiz-adv-x="442" 
d="M449 1537q9 -18 -60 -106q-63 -59 -121 -62t-126 37l-22 -61l-40 -50q-5 5 12 60l31 86l10 32l16 35l29 -24q61 -47 101.5 -46t65.5 10t104 89zM355 467q3 -104 -4 -167q-13 -96 -35.5 -147t-43 -85t-47.5 -71l-104 936q1 24 40 125l27 71q17 45 41 89l20 45l18 30
l29 -189l35 -284l3 -46l11 -150l4 -93z" />
    <glyph glyph-name="b" unicode="&#xf246;" 
d="M366 1497q8 -18 -60 -106q-63 -59 -121.5 -62t-126.5 37l-21 -61l-41 -50q-5 5 13 60l31 86l10 32l16 35l28 -24q62 -47 102.5 -46t65.5 10t104 89zM305 1300q39 -819 60 -900h78h162v-400h-218h-182l-67 1031z" />
    <glyph glyph-name="c" unicode="&#xf247;" horiz-adv-x="447" 
d="M370 -140q0 -4 -1 -5q-2 -7 -6.5 -17t-9.5 -27l-11 -2q-22 -5 -41 -14q-10 -6 -18.5 -8.5t-18.5 -12.5q-39 -30 -81 -74q4 23 20 46l40 43h-60q-27 1 -33 17q-6 22 -2 45t18 51t34.5 45t49.5 24q6 1 16.5 1t20.5 -6t13 -21q2 -31 -18 -54q-34 39 -84 8q-14 -10 -22 -28
q37 -27 105 -22l77 10l3 -1l5 2h4zM331 467q3 -104 -4 -167q-13 -96 -35.5 -147t-43 -85t-47.5 -71l-104 936q1 24 40 125l27 71q17 45 41 89l20 45l18 30l29 -189l35 -284l3 -46l11 -150l4 -93z" />
    <glyph glyph-name="d" unicode="&#xf248;" horiz-adv-x="532" 
d="M374 -242q0 -4 -1 -5q-2 -7 -6.5 -17t-9.5 -27l-11 -2q-22 -5 -41 -14q-10 -6 -19 -8.5t-18 -12.5q-39 -30 -82 -74q5 23 21 46l40 43h-61q-26 1 -32 17q-6 22 -2 45t18 51t34.5 45t49.5 24q6 1 16.5 1t20.5 -6t13 -21q2 -31 -18 -54q-34 38 -85 8q-13 -10 -21 -28
q36 -27 105 -22l77 10l3 -1l5 2h4zM264 1300q39 -819 60 -900h78h162v-400h-218h-182l-67 1031z" />
    <glyph glyph-name="e" unicode="&#xf249;" horiz-adv-x="501" 
d="M343 911q71 -99 101.5 -170t44.5 -142.5t12 -131.5t-30 -223t-43 -203.5t-83 -40.5h-376v400h359q-27 134 -116 267zM400 -261l-157 -179q-112 48 -191 146l161 194q67 -92 187 -161z" />
    <glyph glyph-name="f" unicode="&#xf24a;" horiz-adv-x="587" 
d="M75 0h-144v400h152h168q4 85 17 180q165 225 177 192.5t5 -119t-19.5 -145t-1.5 -77t30.5 -25t60.5 -6.5h118v-400q-139 -2 -190 2t-94.5 27.5t-79.5 110.5l-75 -140h-124zM429 -261l-157 -179q-112 48 -191 146l161 194q67 -92 187 -161z" />
    <glyph glyph-name="g" unicode="&#xf24b;" horiz-adv-x="1262" 
d="M758 0h-199q-270 0 -316.5 6t-102 38t-84 88.5t-31.5 162t18.5 204.5t62.5 196t56.5 111t34.5 17q-78 -256 -33 -339.5t203 -83.5h399h168q3 85 16 180q166 225 178 192.5t5 -119t-19.5 -145t-1.5 -77t30.5 -25t60.5 -6.5h78v-400q-99 -2 -150 2t-94.5 27.5t-79.5 110.5
l-75 -140h-124zM730 -261l-157 -179q-112 48 -191 146l161 194q67 -92 187 -161z" />
    <glyph glyph-name="h" unicode="&#xf24c;" horiz-adv-x="1203" 
d="M247 0q-91 -2 -173 72q-80 87 -80 308q6 122 54.5 281t97.5 192q-14 -89 -32 -182q-26 -171 49 -239q84 -38 165 -32h640q-26 134 -116 267l132 244q70 -99 100.5 -170t44.5 -142.5t12 -131.5t-29.5 -223t-43 -203.5t-83.5 -40.5h-738zM750 -261l-157 -179
q-112 48 -191 146l161 194q67 -92 187 -161z" />
    <glyph glyph-name="i" unicode="&#xf24d;" horiz-adv-x="623" 
d="M252 1189q17 0 121 121q79 -75 189 -130l-135 -179q-7 0 -60 29t-127 92q-47 -54 -96 -118l-98 55l-90 72l136 176q19 -24 84 -71t76 -47zM434 911q71 -99 101.5 -170t44.5 -142.5t12 -131.5t-30 -223t-43 -203.5t-83 -40.5h-486v400h469q-27 134 -116 267z" />
    <glyph glyph-name="j" unicode="&#xf24e;" horiz-adv-x="634" 
d="M275 1189q17 0 121 121q79 -75 189 -130l-135 -179q-7 0 -60 29t-127 92q-47 -54 -96 -118l-98 55l-90 72l136 176q19 -24 84 -71t76 -47zM90 0h-144v400h152h168q4 85 17 180q165 225 177 192.5t5 -119t-19.5 -145t-1.5 -77t30.5 -25t60.5 -6.5h118v-400q-139 -2 -190 2
t-94.5 27.5t-79.5 110.5l-75 -140h-124z" />
    <glyph glyph-name="k" unicode="&#xf24f;" horiz-adv-x="1247" 
d="M957 1181l-67 -84q-68 -85 -84 -100l-68 43q-77 50 -113 83l-62 -76l-43 -50l-79 50q-85 57 -117 90q17 36 80 113l74 86q26 -35 106 -95l63 -45q28 38 70 86l47 54q31 -41 115 -102zM754 0h-199q-270 0 -316.5 6t-102 38t-84 88.5t-31.5 162t18.5 204.5t62.5 196
t56.5 111t34.5 17q-78 -256 -33 -339.5t203 -83.5h399h168q3 85 16 180q166 225 178 192.5t5 -119t-19.5 -145t-1.5 -77t30.5 -25t60.5 -6.5h78v-400q-99 -2 -150 2t-94.5 27.5t-79.5 110.5l-75 -140h-124z" />
    <glyph glyph-name="l" unicode="&#xf250;" horiz-adv-x="1211" 
d="M255 0q-91 -2 -173 72q-80 87 -80 308q6 122 54.5 281t97.5 192q-14 -89 -32 -182q-26 -171 49 -239q84 -38 165 -32h640q-26 134 -116 267l132 244q70 -99 100.5 -170t44.5 -142.5t12 -131.5t-29.5 -223t-43 -203.5t-83.5 -40.5h-738zM549 1189q17 0 121 121
q79 -75 189 -130l-135 -179q-7 0 -60 29t-127 92q-47 -54 -96 -118l-98 55l-90 72l136 176q19 -24 84 -71t76 -47z" />
    <glyph glyph-name="m" unicode="&#xf251;" horiz-adv-x="637" 
d="M452 911q71 -99 101.5 -170t44.5 -142.5t12 -131.5t-30 -223t-43 -203.5t-83 -40.5h-486v400h469q-27 134 -116 267zM438 1458l-67 -84q-65 -82 -85 -100l-78 50q-85 57 -117 90q17 36 80 113l74 86q31 -41 115 -102zM596 1180l-67 -84q-68 -85 -84 -100l-68 43
q-77 50 -113 83l-62 -76l-43 -50l-79 50q-85 57 -117 90q17 36 80 113l74 86q26 -35 106 -95l63 -45q28 38 70 86l47 54q31 -41 115 -102z" />
    <glyph glyph-name="n" unicode="&#xf252;" horiz-adv-x="574" 
d="M389 1368l-67 -84q-65 -82 -85 -100l-78 50q-85 57 -117 90q17 36 80 113l74 86q31 -41 115 -102zM547 1090l-67 -84q-68 -85 -84 -100l-68 43q-77 50 -113 83l-62 -76l-43 -50l-79 50q-85 57 -117 90q17 36 80 113l74 86q26 -35 106 -95l63 -45q28 38 70 86l47 54
q31 -41 115 -102zM94 0h-144v400h152h168q4 85 17 180q165 225 177 192.5t5 -119t-19.5 -145t-1.5 -77t30.5 -25t60.5 -6.5h118v-400q-139 -2 -190 2t-94.5 27.5t-79.5 110.5l-75 -140h-124z" />
    <glyph glyph-name="o" unicode="&#xf253;" horiz-adv-x="1260" 
d="M819 1435l-67 -84q-68 -85 -84 -100l-79 50q-85 57 -117 90q17 36 80 113l74 86q31 -41 115 -102zM977 1177l-67 -84q-68 -85 -84 -100l-68 43q-77 50 -113 83l-62 -76l-43 -50l-79 50q-85 57 -117 90q17 36 80 113l74 86q26 -35 106 -95q10 -8 41 -40q14 -15 22 -20
q35 50 70 101l47 54q31 -41 115 -102zM762 0h-199q-270 0 -316.5 6t-102 38t-84 88.5t-31.5 162t18.5 204.5t62.5 196t56.5 111t34.5 17q-78 -256 -33 -339.5t203 -83.5h399h168q3 85 16 180q166 225 178 192.5t5 -119t-19.5 -145t-1.5 -77t30.5 -25t60.5 -6.5h78v-400
q-99 -2 -150 2t-94.5 27.5t-79.5 110.5l-75 -140h-124z" />
    <glyph glyph-name="p" unicode="&#xf254;" horiz-adv-x="1243" 
d="M288 0q-91 -2 -173 72q-80 87 -80 308q6 122 54.5 281t97.5 192q-14 -89 -32 -182q-26 -171 49 -239q84 -38 165 -32h640q-26 134 -116 267l132 244q70 -99 100.5 -170t44.5 -142.5t12 -131.5t-29.5 -223t-43 -203.5t-83.5 -40.5h-738zM734 1446l-67 -84
q-68 -85 -84 -100l-79 50q-85 57 -117 90q17 36 80 113l74 86q31 -41 115 -102zM892 1178l-67 -84q-68 -85 -84 -100l-68 43q-77 50 -113 83l-62 -76l-43 -50l-79 50q-85 57 -117 90q17 36 80 113l74 86q26 -35 106 -95q13 -9 23 -24t18 -21q9 12 30 30q52 45 62 56l47 54
q31 -41 115 -102z" />
    <glyph glyph-name="q" unicode="&#xf255;" horiz-adv-x="1034" 
d="M39 562.5q15 91.5 76.5 204.5t168.5 122q121 -5 298.5 -142t256.5 -142t169 -5l-105 -280q-194 14 -281 -34.5t-182 -167t-209 -118.5h-270v400h351q123 0 191 56q-204 84 -291 79.5t-137.5 -34.5t-35.5 61.5zM599 -261l-157 -179q-112 48 -191 146l161 194
q67 -92 187 -161z" />
    <glyph glyph-name="r" unicode="&#xf256;" horiz-adv-x="1033" 
d="M1096 0l-427 -1q-165 12 -137 370l-41 -56q-41 -66 -93 -179t-116.5 -123.5t-99.5 -10.5h-223v400h325q139 27 197 113q-108 50 -212 51t-140 -26.5t-42 -2.5t14.5 134t71.5 171t129 63.5t152.5 -44t206 -91t298.5 -25.5q-14 -56 -84 -252q-75 0 -134 -7.5t-119 -40.5
q-12 -48 173 -43h301v-400zM601 -261l-157 -179q-112 48 -191 146l161 194q67 -92 187 -161z" />
    <glyph glyph-name="s" unicode="&#xf257;" horiz-adv-x="962" 
d="M320 -72q-101 35 -165 155l149 155q64 -83 159 -156zM729 400h303v-400h-336q-92 0 -141 26q-84 51 -84 218q0 172 32 270q-20 -7 -56 -18q-64 -23 -141 -95q-70 -64 -116 -136q-45 -59 -64 -174q0 -117 80 -164q90 -81 183 -100q172 -30 375 -30q132 0 194 5l-76 -79
q-182 -187 -411 -187q-266 0 -366 124q-104 91 -85 334q19 158 80 301q74 168 199 274q-213 76 -296 -60q-5 147 43 264q59 122 156 122q85 0 203 -37t187 -56l230 -10q-32 -55 -106 -254l-120 -6l-7 -32q-17 -80 29 -88q63 -18 111 -12z" />
    <glyph glyph-name="t" unicode="&#xf258;" horiz-adv-x="1018" 
d="M781 538l-78 -1l-135 -23q-20 -7 -56 -18q-64 -23 -141 -95q-70 -64 -116 -136q-45 -59 -64 -174q0 -117 80 -164q90 -71 183 -90q172 -30 375 -30q132 0 194 5l-76 -79q-182 -187 -411 -187q-266 0 -366 124q-104 91 -85 324q19 158 80 301q74 168 199 274
q-213 76 -296 -60q-5 147 43 264q59 122 156 122q85 0 203 -42t187 -51l230 -10q-32 -55 -106 -254zM728 179l-157 -179q-112 48 -191 147l161 194q67 -93 187 -162z" />
    <glyph glyph-name="u" unicode="&#xf259;" horiz-adv-x="1047" 
d="M39 562.5q15 91.5 76.5 204.5t168.5 122q121 -5 298.5 -142t256.5 -142t169 -5l-105 -280q-194 14 -281 -34.5t-182 -167t-209 -118.5h-270v400h351q123 0 191 56q-204 84 -291 79.5t-137.5 -34.5t-35.5 61.5z" />
    <glyph glyph-name="v" unicode="&#xf25a;" horiz-adv-x="1046" 
d="M1096 0l-427 -1q-165 12 -137 370l-41 -56q-41 -66 -93 -179t-116.5 -123.5t-99.5 -10.5h-223v400h325q139 27 197 113q-108 50 -212 51t-140 -26.5t-42 -2.5t14.5 134t71.5 171t129 63.5t152.5 -44t206 -91t298.5 -25.5q-14 -56 -84 -252q-75 0 -134 -7.5t-119 -40.5
q-12 -48 173 -43h301v-400z" />
    <glyph glyph-name="w" unicode="&#xf25b;" horiz-adv-x="307" 
d="M170 0h-170v762l170 1v-77h-93v-609h93v-77z" />
    <glyph glyph-name="x" unicode="&#xf25c;" horiz-adv-x="991" 
d="M735 400h303v-400h-336q-92 0 -141 26q-84 51 -84 218q0 172 32 270q-20 -7 -56 -18q-64 -23 -141 -95q-70 -64 -116 -136q-45 -59 -64 -174q0 -117 80 -164q90 -81 183 -100q172 -30 375 -30q132 0 194 5l-76 -79q-182 -187 -411 -187q-266 0 -366 124q-104 91 -85 334
q19 158 80 301q74 168 199 274q-213 76 -296 -60q-5 147 43 264q59 122 156 122q85 0 203 -37t187 -56l230 -10q-32 -55 -106 -254l-120 -6l-7 -32q-17 -80 29 -88q63 -18 111 -12z" />
    <glyph glyph-name="y" unicode="&#xf25d;" horiz-adv-x="307" 
d="M306 0h-170v77h93v609h-93v77l170 -1v-762z" />
    <glyph glyph-name="z" unicode="&#xf25e;" 
d="M379 90q0 -89 -41.5 -163t-142.5 -162l-31 33q65 59 93 101q39 59 39 120l-1 22q-62 0 -92.5 27.5t-30.5 73.5q0 38 27 65t69 27q48 0 79 -40q16 -20 24 -45t8 -59z" />
    <glyph glyph-name="braceleft" unicode="&#xf25f;" horiz-adv-x="476" 
d="M510 0h-560l1 400h559v-400z" />
    <glyph glyph-name="bar" unicode="&#xf260;" horiz-adv-x="953" 
d="M716 538l-78 -1l-135 -23q-20 -7 -56 -18q-64 -23 -141 -95q-70 -64 -116 -136q-45 -59 -64 -174q0 -117 80 -164q90 -71 183 -90q172 -30 375 -30q132 0 194 15l-76 -89q-182 -187 -411 -187q-266 0 -366 124q-104 91 -85 324q19 158 80 301q74 168 199 274
q-213 76 -296 -60q-5 147 43 264q59 122 156 122q85 0 203 -42t187 -51l230 -10q-32 -55 -106 -254z" />
    <glyph glyph-name="braceright" unicode="&#xf261;" horiz-adv-x="1055" 
d="M39 562.5q15 91.5 76.5 204.5t168.5 122q121 -5 298.5 -142t256.5 -142t169 -5l-105 -280q-194 14 -281 -34.5t-182 -167t-209 -118.5h-270v400h351q123 0 191 56q-204 84 -291 79.5t-137.5 -34.5t-35.5 61.5zM599 1179l-157 -179q-112 48 -191 147l161 194
q67 -93 187 -162z" />
    <glyph glyph-name="asciitilde" unicode="&#xf262;" horiz-adv-x="1046" 
d="M1096 0l-427 -1q-165 12 -137 370l-41 -56q-41 -66 -93 -179t-116.5 -123.5t-99.5 -10.5h-223v400h325q139 27 197 113q-108 50 -212 51t-140 -26.5t-42 -2.5t14.5 134t71.5 171t129 63.5t152.5 -44t206 -91t298.5 -25.5q-14 -56 -84 -252q-75 0 -134 -7.5t-119 -40.5
q-12 -48 173 -43h301v-400zM601 1179l-157 -179q-112 48 -191 147l161 194q67 -93 187 -162z" />
    <glyph glyph-name="DEL" unicode="&#xf263;" horiz-adv-x="991" 
d="M735 400h303v-400h-336q-92 0 -141 26q-84 51 -84 218q0 172 32 270q-20 -7 -56 -18q-64 -23 -141 -95q-70 -64 -116 -136q-45 -59 -64 -174q0 -117 80 -164q90 -81 183 -100q172 -30 375 -30q132 0 194 5l-76 -79q-182 -187 -411 -187q-266 0 -366 124q-104 91 -85 334
q19 158 80 301q74 168 199 274q-213 76 -296 -60q-5 147 43 264q59 122 156 122q85 0 203 -37t187 -56l230 -10q-32 -55 -106 -254l-120 -6l-7 -32q-17 -80 29 -88q63 -18 111 -12zM541 1179l-157 -179q-112 48 -191 147l161 194q67 -93 187 -162z" />
    <glyph glyph-name="c128" unicode="&#xf264;" horiz-adv-x="962" 
d="M311 1006q-77 53 -149 147l149 147q72 -78 151 -148zM753 540l-82 -1l-143 -24q-21 -7 -59 -19q-68 -24 -149 -99q-74 -67 -122 -142q-48 -62 -68 -182q0 -122 85 -212q95 -74 193 -94q182 -31 396 -31q140 0 205 16l-101 -93q-214 -195 -466 -195q-229 0 -334 129
q-110 95 -90 378q20 166 84 315q79 176 211 287q-175 69 -313 -63q5 153 45 296q33 127 155 127q70 0 209.5 -49t212.5 -59h243q-33 -77 -112 -285z" />
    <glyph glyph-name="c129" unicode="&#xf265;" horiz-adv-x="728" 
d="M524 911q89 -101 143 -249q34 -139 32 -188t-8 -184.5t-57 -289.5h-171h-128h-165q-85 0 -77 128v287q54 -15 80.5 -15h386.5q-11 32 -30 86.5t-70.5 119t-104.5 86t-110 19.5q0 94 38 191.5t89.5 93.5t151.5 -85z" />
    <glyph glyph-name="quotesinglbase" unicode="&#xf266;" horiz-adv-x="924" 
d="M630 1113q47 -136 99 -438q31 -159 58 -222.5t107 -52.5h89v-400h-163q-94 15 -129 122l-36 117q-38 -154 -61.5 -186.5t-84 -45t-168.5 -7.5q-62 -3 -180 7q-73 15 -75 156t21.5 258.5t58.5 109.5q-1 -30 -1.5 -84.5t106.5 -50.5t193 9t151 43q-15 152 -75 395z" />
    <glyph glyph-name="florin" unicode="&#xf267;" horiz-adv-x="718" 
d="M519 911q89 -101 143 -249q34 -139 32 -188t-8 -184.5t-57 -289.5h-171h-128h-165q-85 0 -77 128v287q54 -15 80.5 -15h386.5q-11 32 -30 86.5t-70.5 119t-104.5 86t-110 19.5q0 94 38 191.5t89.5 93.5t151.5 -85zM480 1237l-157 -179q-112 48 -191 147l161 193
q67 -92 187 -161z" />
    <glyph glyph-name="quotedblbase" unicode="&#xf268;" horiz-adv-x="903" 
d="M630 1113q47 -136 99 -438q31 -159 58 -222.5t107 -52.5h89v-400h-163q-94 15 -129 122l-36 117q-38 -154 -61.5 -186.5t-84 -45t-168.5 -7.5q-62 -3 -180 7q-73 15 -75 156t21.5 258.5t58.5 109.5q-1 -30 -1.5 -84.5t106.5 -50.5t193 9t151 43q-15 152 -75 395z
M620 1199l-157 -179q-112 48 -191 147l161 194q67 -93 187 -162z" />
    <glyph glyph-name="ellipsis" unicode="&#xf269;" horiz-adv-x="574" 
d="M543 327l4 -50l1 -36v-31v-22q-2 -13 -2 -19l-6 -63q-9 -66 -59 -168q-54 -114 -122 -194q-78 -93 -145 -93q-77 0 -195 70.5t-203 167.5l2 9q6 9 14 10q24 -13 47 -22t49 -16q47 -11 108 -11q86 0 202 94q107 87 147 172q4 9 8 25l3 26q0 12 -2 18q-6 29 -54 100
q-44 66 -106 138q7 29 17 61t30 85q33 96 44 109q45 -25 119 -132q83 -123 99 -228z" />
    <glyph glyph-name="dagger" unicode="&#xf26a;" horiz-adv-x="808" 
d="M884 0h-220q-17 0 -36.5 6t-26.5 13q-33 -110 -75.5 -194t-102.5 -153q-22 -27 -54 -45q-40 -23 -76 -23q-55 0 -197 83q-153 90 -189 163l6 8q7 7 14 7q36 -20 79 -30.5t92 -10.5q56 0 96.5 17t87.5 55q82 65 132.5 127.5t56.5 106.5q5 39 -35 123q-34 72 -101 179
q11 28 62 121q56 105 69 118q63 -86 103 -151q47 -76 86 -102q8 -5 13.5 -7t22.5 -7l43 -4h150v-400z" />
    <glyph glyph-name="daggerdbl" unicode="&#xf26b;" horiz-adv-x="575" 
d="M537 327l4 -50l1 -36v-31v-22q-2 -13 -2 -19l-6 -63q-9 -66 -59 -168q-54 -114 -122 -194q-78 -93 -145 -93q-77 0 -195 70.5t-203 167.5l2 9q6 9 14 10q24 -13 47 -22t49 -16q47 -11 108 -11q86 0 202 94q107 87 147 172q4 9 8 25l3 26q0 12 -2 18q-6 29 -54 100
q-44 66 -106 138q7 29 17 61t30 85q33 96 44 109q45 -25 119 -132q83 -123 99 -228zM442 1179l-157 -179q-112 48 -191 147l161 194q67 -93 187 -162z" />
    <glyph glyph-name="circumflex" unicode="&#xf26c;" horiz-adv-x="794" 
d="M884 0h-220q-17 0 -36.5 6t-26.5 13q-33 -110 -75.5 -194t-102.5 -153q-22 -27 -54 -45q-40 -23 -76 -23q-55 0 -197 83q-153 90 -189 163l6 8q7 7 14 7q36 -20 79 -30.5t92 -10.5q56 0 96.5 17t87.5 55q82 65 132.5 127.5t56.5 106.5q5 39 -35 123q-34 72 -101 179
q11 28 62 121q56 105 69 118q63 -86 103 -151q47 -76 86 -102q8 -5 13.5 -7t22.5 -7l43 -4h150v-400zM500 1138l-157 -179q-112 48 -191 147l161 194q67 -93 187 -162z" />
    <glyph glyph-name="perthousand" unicode="&#xf26d;" horiz-adv-x="1008" 
d="M935 711q14 -27 22 -146.5t-15 -252.5t-48.5 -199.5t-52.5 -86t-88 -8t-168 74.5q-45 -55 -72.5 -68.5t-73 -19t-135.5 -5.5t-143 31q-44 -29 -138 -31h-72v399l90 1h73q71 10 101.5 43t50.5 85t107 122q-7 -55 -30 -126t-41 -124q174 -11 222.5 13.5t94.5 176.5
q64 70 116 90q-78 -199 -73.5 -216t39 -40.5t78 -36t74.5 -4.5q-2 77 -16 126z" />
    <glyph glyph-name="Scaron" unicode="&#xf26e;" horiz-adv-x="1141" 
d="M898 572q130 128 128 98q10 -26 -8 -113t12.5 -122t70.5 -35h16h47v-400h-40q-18 0 -94 2t-116 92q-27 -62 -55 -78t-108.5 -11t-156.5 58q-60 -43 -129 -53t-144.5 0t-93 18t-53.5 33q-48 -58 -149 -60l-63 -1v400h62q115 4 149 26.5t64 76.5t54 71q101 56 86 31
t-48.5 -103.5t-31 -84.5t75.5 -14t136 -5.5t89 71.5q31 80 39.5 98.5t24 31t62.5 43.5q-25 -151 -35 -185q-10 -33 38.5 -50t83.5 -7t46 20.5t41 151.5z" />
    <glyph glyph-name="guilsinglleft" unicode="&#xf26f;" horiz-adv-x="1587" 
d="M1469 673q5 -23 -9 -108.5t5.5 -126t105.5 -38.5h44v-400h-54q-37 0 -108 4t-93 70q-21 -39 -61 -58t-124 -17q-61 0 -120 56q-41 -35 -80 -43.5t-92.5 -11t-109.5 33.5q-7 -46 -11 -69q-32 -150 -41 -175l-10 -47l-18 -39l-54 -70l-35 -21q-13 -11 -31 -22l-72 -28
l-126 -17q-103 0 -198 46.5t-131 184.5q-18 76 2 194l18 102q8 21 14 47l16 39q7 21 18 43l38 81l44 69q7 -2 10 -9l-48 -169l-10 -111l10 -51l18 -43l24 -30l27 -26l34 -21l83 -21h51l130 17l110 47q16 10 31 26q9 17 10 48l-44 147l-68 158q-8 24 7 48l112 271
q9 22 43 -61t52 -119t76 -49.5t111 -8t62 36.5q10 16 18 38l27 82l24 34q12 13 28 26l48 30q-2 -18 -8 -39l-27 -146q-7 -25 6 -35.5t49 -21t97 10.5q36 19 53 161q122 124 127 101z" />
    <glyph glyph-name="OE" unicode="&#xf270;" horiz-adv-x="1516" 
d="M1428 740q21 -19 31 -218l-10 -112q-34 -246 -65 -315l-24 -34q-13 -15 -31 -26q-18 -6 -42 -9q-85 -3 -179 39q-41 -45 -79.5 -53.5t-92 -11t-109.5 33.5l-12 -69q-16 -130 -45.5 -201t-77.5 -110q-48 -52 -137 -91l-127 -17q-193 -7 -281 73.5t-93 197.5t19 212t85 224
t79 138t12 -18q-78 -280 -38 -331l18 -43l24 -30l27 -26l35 -21l82 -21q154 5 217.5 21t112.5 49q1 47 -21 128l-29 97l-48 128q-7 24 7 48l100 261q9 22 43 -61t52.5 -119t76.5 -49.5t111 -8t62 36.5q9 16 17 38l38 82l24 34q11 13 27 26l38 30q-2 -18 -7 -39l-38 -146
q-6 -25 6.5 -35.5t54 -21t102.5 10.5l-11 175z" />
    <glyph glyph-name="c141" unicode="&#xf271;" horiz-adv-x="971" 
d="M930 711q14 -27 22 -146.5t-15 -252.5t-48.5 -199.5t-52.5 -86t-88 -8t-168 74.5q-45 -55 -72.5 -68.5t-73 -19t-125.5 -5.5t-133 31q-44 -29 -138 -31h-72v399l90 1h73q71 10 101.5 43t50.5 85t107 122q-7 -55 -30 -126t-41 -124q154 -11 202.5 13.5t94.5 176.5
q64 70 116 90q-78 -199 -73.5 -216t39 -40.5t78 -36t74.5 -4.5q-2 77 -16 126zM751 1242l-67 -84q-27 -34 -66 -95q-16 -26 -19 -28q-17 10 -34 28q-22 22 -44 45q-85 57 -117 90q17 36 80 113l74 86q31 -41 115 -102zM909 964l-67 -84q-68 -85 -84 -100l-68 43
q-77 50 -113 83l-62 -76l-43 -50l-79 50q-85 57 -117 90q17 36 80 113l74 86q26 -35 106 -95l63 -45q28 38 70 86l47 54q31 -41 115 -102z" />
    <glyph glyph-name="c142" unicode="&#xf272;" horiz-adv-x="1115" 
d="M783 1342l-67 -84q-68 -85 -84 -100l-79 50q-85 57 -117 90q17 36 80 113l74 86q31 -41 115 -102zM941 1074l-67 -84q-68 -85 -84 -100l-68 43q-77 50 -113 83l-62 -76l-43 -50l-79 50q-85 57 -117 90q17 36 80 113l74 86q26 -35 106 -95l63 -45q28 38 70 86l47 54
q31 -41 115 -102zM880 572q130 128 128 98q10 -26 -8 -113t12.5 -122t70.5 -35h16h47v-400h-40q-18 0 -94 2t-116 92q-27 -62 -55 -78t-108.5 -11t-156.5 58q-60 -43 -129 -53t-134.5 0t-83 18t-53.5 33q-48 -58 -149 -60l-63 -1v400h62q115 4 149 26.5t64 76.5t54 71
q81 56 76 31t-38.5 -103.5t-31 -84.5t65.5 -14t126 -5.5t89 71.5q31 80 39.5 98.5t24 31t62.5 43.5q-25 -151 -35 -185q-10 -33 38.5 -50t83.5 -7t46 20.5t41 151.5z" />
    <glyph glyph-name="c143" unicode="&#xf273;" horiz-adv-x="1541" 
d="M1259 1345l-67 -84q-68 -85 -84 -100l-79 50q-85 57 -117 90q17 36 80 113l74 86q31 -41 115 -102zM1417 1077l-67 -84q-68 -85 -84 -100l-68 43q-77 50 -113 83l-62 -76l-43 -50l-79 50q-85 57 -117 90q17 36 80 113l74 86q26 -35 106 -95l63 -45q28 38 70 86l47 54
q31 -41 115 -102zM1423 673q5 -23 -9 -108.5t5.5 -126t105.5 -38.5h44v-400h-54q-37 0 -108 4t-93 70q-21 -39 -61 -58t-124 -17q-61 0 -120 56q-41 -35 -80 -43.5t-82.5 -11t-99.5 33.5q-7 -46 -11 -69q-32 -150 -41 -175l-10 -47l-18 -39l-54 -70l-35 -21q-13 -11 -31 -22
l-72 -28l-126 -17q-103 0 -198 46.5t-131 184.5q-18 76 2 194l18 102q8 21 14 47l16 39q7 21 18 43l38 81l44 69q7 -2 10 -9l-48 -169l-10 -111l10 -51l18 -43l24 -30l27 -26l34 -21l83 -21h51l130 17l110 47q16 10 31 26q9 17 10 48l-44 147l-68 158q-8 24 7 48l112 271
q9 22 43 -61t52 -119t66 -49.5t101 -8t62 36.5q10 16 18 38l27 82l24 34q12 13 28 26l48 30q-2 -18 -8 -39l-27 -146q-7 -25 6 -35.5t49 -21t97 10.5q36 19 53 161q122 124 127 101z" />
    <glyph glyph-name="c144" unicode="&#xf274;" horiz-adv-x="1465" 
d="M1398 740q21 -19 31 -218l-10 -112q-34 -246 -65 -315l-24 -34q-13 -15 -31 -26q-18 -6 -42 -9q-85 -3 -179 39q-41 -45 -79.5 -53.5t-82 -11t-99.5 33.5l-12 -69q-16 -130 -45.5 -201t-77.5 -110q-48 -52 -137 -91l-127 -17q-193 -7 -281 73.5t-93 197.5t19 212t85 224
t79 138t12 -18q-78 -280 -38 -331l18 -43l24 -30l27 -26l35 -21l82 -21q154 5 217.5 21t112.5 49q1 47 -21 128l-29 97l-48 128q-7 24 7 48l100 261q9 22 43 -61t52.5 -119t66.5 -49.5t101 -8t62 36.5q9 16 17 38l38 82l24 34q11 13 27 26l38 30q-2 -18 -7 -39l-38 -146
q-6 -25 6.5 -35.5t54 -21t102.5 10.5l-11 175zM1176 1332l-65 -84q-26 -33 -67 -95q-16 -25 -20 -28q-17 10 -34 28q-22 22 -44 45q-85 57 -117 90q17 36 80 113l74 86q31 -41 115 -102zM1334 1054l-67 -84q-68 -85 -84 -100l-68 43q-77 50 -113 83l-62 -76l-43 -50l-79 50
q-85 57 -117 90q17 36 80 113l74 86q26 -35 106 -95l63 -45q28 38 70 86l47 54q31 -41 115 -102z" />
    <glyph glyph-name="quoteleft" unicode="&#xf275;" horiz-adv-x="1221" 
d="M597 602.5q96 71.5 207 143.5t203 68.5t158.5 -109t59 -158t-65.5 -168.5t-127 -247.5t-131 -131.5h-358h-184h-69q-121 -1 -151 110q-49 -120 -119 -110h-70l-1 400h91q93 0 103 32.5t14 139.5l125 155q9 -96 -3 -164t-4 -115q7 -48 63 -45q163 128 259 199.5zM755 400
h242l-19 56q-36 54 -89.5 78t-153.5 -13q-101 -36 -234 -121h254z" />
    <glyph glyph-name="quoteright" unicode="&#xf276;" horiz-adv-x="1303" 
d="M599 602.5q96 71.5 207 143.5t203 68.5t158.5 -109t64 -158t-40.5 -147.5h157v-400h-803h-184h-69q-121 -1 -151 150q-49 -160 -119 -150h-70l-1 400h91q93 0 103 32.5t14 139.5l125 155q9 -96 -3 -164t-4 -115q7 -48 63 -45q163 128 259 199.5zM757 400h242
q-19 45 -39.5 72.5t-71.5 56.5t-151 -8q-101 -36 -234 -121h254z" />
    <glyph glyph-name="quotedblleft" unicode="&#xf277;" horiz-adv-x="1868" 
d="M1077 400h248h200l-22 48q-21 47 -67 82.5t-140 6.5q-119 -59 -219 -137zM1915 0l-998 -2q-97 0 -153 46q-7 -56 -11 -79q-52 -212 -69 -251l-55 -70l-34 -21q-14 -11 -31 -22q-72 -38 -135.5 -51.5t-135 -8.5t-147.5 45l-33 21l-56 60l-37 73l-14 47l-7 106v98l18 102
q8 21 13 47l17 39q6 21 18 43l37 81l44 69q7 -2 11 -9l-48 -169l-11 -111l11 -51l17 -43l24 -30l27 -26l35 -21q82 -31 127.5 -31t111 8.5t148 58.5t68.5 81q-21 137 -111 315q-23 24 -9 48l136 281q69 -163 114.5 -219t74.5 -55t93.5 51t191.5 145q76 63 176 119
q123 70 188 70q110 20 196 -101q43 -69 43 -129q-7 -108 -17 -154h172v-400zM1447 394z" />
    <glyph glyph-name="quotedblright" unicode="&#xf278;" horiz-adv-x="1680" 
d="M1358 -2l-503 1q-60 3 -104 25q-3 -62 -4.5 -105.5t-21 -116.5t-95.5 -168l-27 -21q-13 -11 -31 -22q-88 -38 -167 -46.5t-131 -3.5t-128 35l-33 21l-55 60l-38 73l-14 47l-7 116v98l18 102q8 21 13 47l17 39q7 21 18 43l37 81l44 69q8 -2 11 -9l-48 -169l-11 -111
l11 -51l17 -43l24 -30l28 -26l34 -21q82 -21 132 -26t115 8.5t123 37t65 69.5l-14 58l-41 97l-68 148q-7 24 7 48l122 291q69 -163 103.5 -204t64.5 -39q209 157 276 215q76 63 176 119q122 70 188 70q110 -20 175 -111q23 -59 38 -104t-49 -187t-136.5 -272t-130.5 -132z
M1211 400h242l-19 56q-36 54 -89.5 78t-153.5 -13q-101 -36 -234 -121h254z" />
    <glyph glyph-name="bullet" unicode="&#xf279;" horiz-adv-x="1228" 
d="M604 602.5q96 71.5 207 143.5t203 68.5t158.5 -109t59 -158t-65.5 -168.5t-127 -247.5t-131 -131.5h-358h-184h-69q-121 -1 -151 150q-49 -160 -119 -150h-70l-1 400h91q93 0 103 32.5t14 139.5l125 155q9 -96 -3 -164t-4 -115q7 -48 63 -45q163 128 259 199.5zM762 400
h242l-19 56q-36 54 -89.5 78t-153.5 -13q-101 -36 -234 -121h254zM756 1138l-157 -179q-112 48 -191 147l161 194q67 -93 187 -162z" />
    <glyph glyph-name="endash" unicode="&#xf27a;" horiz-adv-x="1303" 
d="M597 602.5q96 71.5 207 143.5t203 68.5t158.5 -109t64 -158t-40.5 -147.5h156v-400h-802h-184h-69q-121 -1 -151 150q-49 -160 -119 -150h-70l-1 400h91q93 0 103 32.5t14 139.5l125 155q9 -96 -3 -164t-4 -115q7 -48 63 -45q163 128 259 199.5zM755 400h242
q-19 45 -39.5 72.5t-71.5 56.5t-151 -8q-101 -36 -234 -121h254zM749 1138l-157 -179q-112 48 -191 147l161 194q67 -93 187 -162z" />
    <glyph glyph-name="emdash" unicode="&#xf27b;" horiz-adv-x="496" 
d="M470 -268q-6 -6 -11 -6q-12 0 -56 28q-49 35 -91 92l-31 45l-19 31l-21 42l-20 46q-46 0 -66 7q-21 3 -25 17q22 17 41 44q8 9 14 23l6 30q-19 0 -46 -21l-49 -43q-5 0 -14 18l-10 53l-19 11l-16 12q-12 9 -13 19q0 8 9 20t37 27l1 25l5 23q6 15 15 20l49 -43
q29 -19 51 -19q0 10 -6 25q-3 13 -17 26l-43 46q0 5 30 16q33 10 64 10q30 89 85 170q36 54 89 95q39 30 55 30q5 0 8 -9l-7 -10l-24 -30q-31 -35 -65 -91l-20 -45l-13 -33l-11 -39q-2 -11 -3 -20t-5 -22q25 -3 34 -9q9 -4 10 -10l-18 -16q-7 -7 -11.5 -12t-12.5 -17
q-20 -25 -20 -52q13 0 25 4.5t25 15.5l43 44q6 0 18 -24q9 -24 9 -48q31 -14 36 -23q10 -10 10 -21q0 -8 -10 -18l-12 -10l-21 -13l-1 -32q0 -9 -7 -22q-4 -11 -16 -17l-20 20l-22 20q-25 16 -55 22q0 -27 20 -50l44 -49q-1 -2 -3 -5t-6 -5l-12 -4l-27 -6q15 -72 57 -147
t96 -120q8 -9 9 -16zM417 620q-57 -41 -106 -113q-24 -39 -42 -77l-19 -44l-19 -50l-30 -1q-24 0 -31 -2q-8 0 -11 -9l11 -11l13 -13l13 -15l13 -23l9 15l9 11l15 10l10 -5l18 -31q9 21 22 37l28 28l-12 7l-22 5l12 51q4 15 8.5 31.5t5.5 19.5l16 43l9 19q3 10 11 20
q12 21 39 57zM432 187q0 9 -40 25q0 25 -5 38l-3 11l-3 7l-32 -30q-13 -11 -38 -23q42 -18 42 -32t-40 -30q23 -6 42 -22l28 -27q5 5 7 12l2 39q39 21 40 32zM297 183q0 23 -17 39q-15 17 -40 17q-22 0 -39 -17t-17 -39t16 -39q8 -8 17 -12l23 -4q22 0 39.5 15t17.5 40z
M169 152l-18 9l-13 8q-7 7 -10 15q0 6 10 15l13 7l17 8q-13 3 -20 8l-22 14l-30 27l-6 -13l-2 -38q-39 -21 -40 -32l4 -6l7 -6l14 -7l15 -6v-14l4 -22l4 -14l4 -5l31 28q19 16 38 24zM438 -250q-49 43 -89.5 114.5t-58.5 164.5l13 2q10 0 13 2l6 3l2 3l-28 28l-13 16l-13 22
q-6 -21 -16 -28q-4 -5 -14 -8q-12 0 -29 36q-7 -17 -24 -41l-24 -27l4 -2l8 -2l28 -4l15 1l16 1q24 -82 74 -152q54 -82 130 -129z" />
    <glyph glyph-name="tilde" unicode="&#xf27c;" horiz-adv-x="1872" 
d="M1077 400h248h200l-22 48q-21 47 -67 82.5t-140 6.5q-119 -59 -219 -137zM1919 0l-1002 -2q-97 0 -153 46q-7 -56 -11 -79q-52 -212 -69 -251l-55 -70l-34 -21q-14 -11 -31 -22q-72 -38 -135.5 -51.5t-135 -8.5t-147.5 45l-33 21l-56 60l-37 73l-14 47l-7 106v98l18 102
q8 21 13 47l17 39q6 21 18 43l37 81l44 69q7 -2 11 -9l-48 -169l-11 -111l11 -51l17 -43l24 -30l27 -26l35 -21q82 -31 127.5 -31t111 8.5t148 58.5t68.5 81q-21 137 -111 315q-23 24 -9 48l136 281q69 -163 114.5 -219t74.5 -55t93.5 51t191.5 145q76 63 176 119
q123 70 188 70q110 20 196 -101q43 -69 43 -129q-7 -108 -17 -154h176v-400zM1447 394zM1228 1138l-157 -179q-112 48 -191 147l161 194q67 -93 187 -162z" />
    <glyph glyph-name="trademark" unicode="&#xf27d;" horiz-adv-x="496" 
d="M34 -252q54 45 96 120t57 147l-27 6l-12 4q-4 2 -6 5t-3 5l44 49q20 23 20 50q-30 -6 -55 -22l-22 -20l-20 -20q-12 6 -16 17q-7 13 -7 22l-1 32l-21 13l-12 10q-10 10 -10 18q0 11 10 21q5 9 36 23q0 24 9 48q12 24 18 24l43 -44q13 -11 25 -15.5t25 -4.5q0 27 -20 52
q-8 12 -12.5 17t-11.5 12l-18 16q1 6 10 10q9 6 34 9q-4 13 -5 22t-3 20l-11 39l-13 33l-20 45q-34 56 -65 91l-24 30l-7 10q3 9 8 9q16 0 55 -30q53 -41 89 -95q55 -81 85 -170q31 0 64 -10q30 -11 30 -16l-43 -46q-14 -13 -17 -26q-6 -15 -6 -25q22 0 51 19l49 43
q9 -5 15 -20l5 -23l1 -25q28 -15 37 -27t9 -20q-1 -10 -13 -19l-16 -12l-19 -11l-10 -53q-9 -18 -14 -18l-49 43q-27 21 -46 21l6 -30q6 -14 14 -23q19 -27 41 -44q-4 -14 -25 -17q-20 -7 -66 -7l-20 -46l-21 -42l-19 -31l-31 -45q-42 -57 -91 -92q-44 -28 -56 -28
q-5 0 -11 6q1 7 9 16zM108 580q27 -36 39 -57q8 -10 11 -20l9 -19l16 -43q1 -3 5.5 -19.5t8.5 -31.5l12 -51l-22 -5l-12 -7l28 -28q13 -16 22 -37l18 31l10 5l15 -10l9 -11l9 -15l13 23l13 15l13 13l11 11q-3 9 -11 9q-7 2 -31 2l-30 1l-19 50l-19 44q-18 38 -42 77
q-49 72 -106 113zM103 155l2 -39q2 -7 7 -12l28 27q19 16 42 22q-40 16 -40 30t42 32q-25 12 -38 23l-32 30l-3 -7l-3 -11q-5 -13 -5 -38q-40 -16 -40 -25q1 -11 40 -32zM215.5 143q17.5 -15 39.5 -15l23 4q9 4 17 12q16 17 16 39t-17 39t-39 17q-25 0 -40 -17
q-17 -16 -17 -39q0 -25 17.5 -40zM364 128l31 -28l4 5l4 14l4 22v14l15 6l14 7l7 6l4 6q-1 11 -40 32l-2 38l-6 13l-30 -27l-22 -14q-7 -5 -20 -8l17 -8l13 -7q10 -9 10 -15q-3 -8 -10 -15l-13 -8l-18 -9q19 -8 38 -24zM187 -121q50 70 74 152l16 -1l15 -1l28 4l8 2l4 2
l-24 27q-17 24 -24 41q-17 -36 -29 -36q-10 3 -14 8q-10 7 -16 28l-13 -22l-13 -16l-28 -28l2 -3l6 -3q3 -2 13 -2l13 -2q-18 -93 -58.5 -164.5t-89.5 -114.5q76 47 130 129z" />
    <glyph glyph-name="scaron" unicode="&#xf27e;" horiz-adv-x="1675" 
d="M1361 -2l-503 1q-60 3 -104 25q-3 -62 -4.5 -105.5t-21 -116.5t-95.5 -168l-27 -21q-13 -11 -31 -22q-88 -38 -167 -46.5t-131 -3.5t-128 35l-33 21l-55 60l-38 73l-14 47l-7 116v98l18 102q8 21 13 47l17 39q7 21 18 43l37 81l44 69q8 -2 11 -9l-48 -169l-11 -111
l11 -51l17 -43l24 -30l28 -26l34 -21q82 -21 132 -26t115 8.5t123 37t65 69.5l-14 58l-41 97l-68 148q-7 24 7 48l122 291q69 -163 103.5 -204t64.5 -39q209 157 276 215q76 63 176 119q122 70 188 70q110 -20 175 -111q23 -59 38 -104t-49 -187t-136.5 -272t-130.5 -132z
M1214 400h242l-19 56q-36 54 -89.5 78t-153.5 -13q-101 -36 -234 -121h254zM1209 1138l-157 -179q-112 48 -191 147l161 194q67 -93 187 -162z" />
    <glyph glyph-name="DEL" unicode="&#xf27f;" horiz-adv-x="1027" 
d="M324 1048l-113 -220l18 -116q-5 -173 -44 -245q132 114 372 271q98 70 215 90q140 -10 217 -131q49 -79 40 -168q-110 -254 -220.5 -391.5t-227.5 -137.5h-621v400h112l35 27l-56 472q-5 82 -24.5 101.5t-30.5 42.5t-6.5 37t22 61.5t48.5 112t39 54.5t3 -43.5t24.5 -60.5
t52.5 -52t145 -104zM532 401q244 -2 277 52q-30 57 -105 97.5t-175 1.5q-125 -49 -279 -151h282z" />
    <glyph glyph-name="oe" unicode="&#xf280;" horiz-adv-x="1565" 
d="M635 -261l-157 -179q-112 48 -191 146l161 194q67 -92 187 -161zM1283 -261l-157 -179q-112 48 -191 146l161 194q67 -92 187 -161zM683 -1q-165 12 -137 370l-41 -56q-41 -66 -93 -179t-116.5 -123.5t-99.5 -10.5h-223v400h325q139 27 197 113q-108 50 -212 51
t-140 -26.5t-42 -2.5t14.5 134t71.5 171t129 63.5t152.5 -44t206 -91t298.5 -25.5q-14 -56 -84 -252q-75 0 -134 -7.5t-119 -40.5q-12 -48 173 -43h491q-25 134 -105 267l138 244q64 -99 91 -170t39.5 -142.5t11 -131.5t-26.5 -223t-38.5 -203.5t-74.5 -40.5z" />
    <glyph glyph-name="c157" unicode="&#xf281;" horiz-adv-x="1527" 
d="M1275 -261l-157 -179q-112 48 -191 146l161 194q67 -92 187 -161zM675 -1q-165 12 -137 370l-41 -56q-41 -66 -93 -179t-116.5 -123.5t-99.5 -10.5h-223v400h325q139 27 197 113q-108 50 -212 51t-140 -26.5t-42 -2.5t14.5 134t71.5 171t129 63.5t152.5 -44t206 -91
t298.5 -25.5q-14 -56 -84 -252q-75 0 -134 -7.5t-119 -40.5q-12 -48 173 -43h491q-25 134 -105 267l138 244q64 -99 91 -170t39.5 -142.5t11 -131.5t-26.5 -223t-38.5 -203.5t-74.5 -40.5z" />
    <glyph glyph-name="c158" unicode="&#xf282;" horiz-adv-x="1531" 
d="M631 1179l-157 -179q-112 48 -191 147l161 194q67 -93 187 -162zM1279 -261l-157 -179q-112 48 -191 146l161 194q67 -92 187 -161zM679 -1q-165 12 -137 370l-41 -56q-41 -66 -93 -179t-116.5 -123.5t-99.5 -10.5h-223v400h325q139 27 197 113q-108 50 -212 51
t-140 -26.5t-42 -2.5t14.5 134t71.5 171t129 63.5t152.5 -44t206 -91t298.5 -25.5q-14 -56 -84 -252q-75 0 -134 -7.5t-119 -40.5q-12 -48 173 -43h491q-25 134 -105 267l138 244q64 -99 91 -170t39.5 -142.5t11 -131.5t-26.5 -223t-38.5 -203.5t-74.5 -40.5z" />
    <glyph glyph-name="Ydieresis" unicode="&#xf283;" horiz-adv-x="1557" 
d="M1271 1196q-67 -86 -114 -142q-28 -34 -37 -42q-145 93 -181 126q-14 -18 -39 -48l-66 -78q-94 58 -138 90q-33 24 -58 50l154 199q18 -24 72 -68q49 -40 97 -72q28 38 68 85q34 40 49 55q21 -29 53 -55q38 -31 140 -100zM635 -261l-157 -179q-112 48 -191 146l161 194
q67 -92 187 -161zM683 -1q-165 12 -137 370l-41 -56q-41 -66 -93 -179t-116.5 -123.5t-99.5 -10.5h-223v400h325q139 27 197 113q-108 50 -212 51t-140 -26.5t-42 -2.5t14.5 134t71.5 171t129 63.5t152.5 -44t206 -91t298.5 -25.5q-14 -56 -84 -252q-75 0 -134 -7.5
t-119 -40.5q-12 -48 173 -43h491q-25 134 -105 267l138 244q64 -99 91 -170t39.5 -142.5t11 -131.5t-26.5 -223t-38.5 -203.5t-74.5 -40.5z" />
    <glyph glyph-name="nonbreakingspace" unicode="&#xf284;" horiz-adv-x="1531" 
d="M1263 1196q-67 -86 -114 -142q-28 -34 -37 -42q-145 93 -181 126q-14 -18 -39 -48l-66 -78q-94 58 -138 90q-33 24 -58 50l154 199q18 -24 72 -68q49 -40 97 -72q28 38 68 85q34 40 49 55q21 -29 53 -55q38 -31 140 -100zM1012 0zM675 -1q-165 12 -137 370l-41 -56
q-41 -66 -93 -179t-116.5 -123.5t-99.5 -10.5h-223v400h325q139 27 197 113q-108 50 -212 51t-140 -26.5t-42 -2.5t14.5 134t71.5 171t129 63.5t152.5 -44t206 -91t298.5 -25.5q-14 -56 -84 -252q-75 0 -134 -7.5t-119 -40.5q-12 -48 173 -43h491q-25 134 -105 267l138 244
q64 -99 91 -170t39.5 -142.5t11 -131.5t-26.5 -223t-38.5 -203.5t-74.5 -40.5z" />
    <glyph glyph-name="exclamdown" unicode="&#xf285;" horiz-adv-x="1528" 
d="M1267 1196q-67 -86 -114 -142q-28 -34 -37 -42q-145 93 -181 126q-14 -18 -39 -48l-66 -78q-94 58 -138 90q-33 24 -58 50l154 199q18 -24 72 -68q49 -40 97 -72q28 38 68 85q34 40 49 55q21 -29 53 -55q38 -31 140 -100zM579 1189l-157 -179q-112 48 -191 147l161 194
q67 -93 187 -162zM679 -1q-165 12 -137 370l-41 -56q-41 -66 -93 -179t-116.5 -123.5t-99.5 -10.5h-223v400h325q139 27 197 113q-108 50 -212 51t-140 -26.5t-42 -2.5t14.5 134t71.5 171t129 63.5t152.5 -44t206 -91t298.5 -25.5q-14 -56 -84 -252q-75 0 -134 -7.5
t-119 -40.5q-12 -48 173 -43h491q-25 134 -105 267l138 244q64 -99 91 -170t39.5 -142.5t11 -131.5t-26.5 -223t-38.5 -203.5t-74.5 -40.5z" />
    <glyph glyph-name="cent" unicode="&#xf286;" horiz-adv-x="1480" 
d="M628 -261l-157 -179q-112 48 -191 146l161 194q67 -92 187 -161zM1103 0l-427 -1q-165 12 -137 370l-41 -56q-41 -66 -93 -179t-116.5 -123.5t-99.5 -10.5h-223v400h325q139 27 197 113q-108 50 -212 51t-140 -26.5t-42 -2.5t14.5 134t71.5 171t129 63.5t152.5 -44
t206 -91t298.5 -25.5q-14 -56 -84 -252q-75 0 -134 -7.5t-119 -40.5q-12 -48 173 -43h301l-173 1h255h42l-54 392q-3 45 -15 98q-26 33 -36 48t-21.5 36.5t-9.5 51.5t48 128l76 135q12 0 13.5 -25.5t15 -61t27.5 -52.5t31.5 -34t152.5 -123l-98 -223l8 -178l15 -120l3 -59
l2 -70l-29 -159l-27 -110q-23 -83 -85 -75h-314h173z" />
    <glyph glyph-name="sterling" unicode="&#xf287;" horiz-adv-x="1494" 
d="M1110 0l-427 -1q-165 12 -137 370l-41 -56q-41 -66 -93 -179t-116.5 -123.5t-99.5 -10.5h-223v400h325q139 27 197 113q-108 50 -212 51t-140 -26.5t-42 -2.5t14.5 134t71.5 171t129 63.5t152.5 -44t206 -91t298.5 -25.5q-14 -56 -84 -252q-75 0 -134 -7.5t-119 -40.5
q-12 -48 173 -43h301l-173 1h255h42l-54 392q-3 45 -15 98q-26 33 -36 48t-21.5 36.5t-9.5 51.5t48 128l76 135q12 0 13.5 -25.5t15 -61t27.5 -52.5t31.5 -34t152.5 -123l-98 -223l8 -178l15 -120l3 -59l2 -70l-29 -159l-27 -110q-23 -83 -85 -75h-314h173z" />
    <glyph glyph-name="currency" unicode="&#xf288;" horiz-adv-x="1487" 
d="M535 1179l-157 -179q-112 48 -191 147l161 194q67 -93 187 -162zM1110 0l-427 -1q-165 12 -137 370l-41 -56q-41 -66 -93 -179t-116.5 -123.5t-99.5 -10.5h-223v400h325q139 27 197 113q-108 50 -212 51t-140 -26.5t-42 -2.5t14.5 134t71.5 171t129 63.5t152.5 -44
t206 -91t298.5 -25.5q-14 -56 -84 -252q-75 0 -134 -7.5t-119 -40.5q-12 -48 173 -43h301l-173 1h255h42l-54 392q-3 45 -15 98q-26 33 -36 48t-21.5 36.5t-9.5 51.5t48 128l76 135q12 0 13.5 -25.5t15 -61t27.5 -52.5t31.5 -34t152.5 -123l-98 -223l8 -178l15 -120l3 -59
l2 -70l-29 -159l-27 -110q-23 -83 -85 -75h-314h173z" />
    <glyph glyph-name="yen" unicode="&#xf289;" horiz-adv-x="1729" 
d="M671 -261l-157 -179q-112 48 -191 146l161 194q67 -92 187 -161zM1390 554l142 -101q-9 97 -40 139q-24 18 -53 9t-49 -47zM671 -1q-165 12 -137 370l-41 -56q-41 -66 -93 -179t-116.5 -123.5t-99.5 -10.5h-216v400h318q139 27 197 113q-108 50 -212 51t-140 -26.5
t-42 -2.5t14.5 134t71.5 171t129 63.5t152.5 -44t206 -91t298.5 -25.5q-14 -56 -84 -252q-75 0 -134 -7.5t-119 -40.5q-12 -48 173 -43h226q143 0 164 35q51 87 94 159.5t83 111t68 55.5t61 32t81 15q17 -5 33 -17q32 -35 39.5 -50t19 -51t27.5 -117.5t30 -225.5
q-71 -188 -159 -312q-164 113 -309 208q-59 -136 -85 -171.5t-66.5 -53.5t-80.5 -18z" />
    <glyph glyph-name="brokenbar" unicode="&#xf28a;" horiz-adv-x="1765" 
d="M1394 554l142 -101q-9 97 -40 139q-24 18 -53 9t-49 -47zM675 -1q-165 12 -137 370l-41 -56q-41 -66 -93 -179t-116.5 -123.5t-99.5 -10.5h-224v400h326q139 27 197 113q-108 50 -212 51t-140 -26.5t-42 -2.5t14.5 134t71.5 171t129 63.5t152.5 -44t206 -91t298.5 -25.5
q-14 -56 -84 -252q-75 0 -134 -7.5t-119 -40.5q-12 -48 173 -43h226q143 0 164 35q51 87 94 159.5t83 111t68 55.5t61 32t81 15q17 -5 33 -17q32 -35 39.5 -50t19 -51t27.5 -117.5t30 -225.5q-71 -188 -159 -312q-164 113 -309 208q-59 -136 -85 -171.5t-66.5 -53.5
t-80.5 -18z" />
    <glyph glyph-name="section" unicode="&#xf28b;" horiz-adv-x="1775" 
d="M529 1138l-157 -179q-112 48 -191 147l161 194q67 -93 187 -162zM1396 554l142 -101q-9 97 -40 139q-24 18 -53 9t-49 -47zM677 -1q-165 12 -137 370l-41 -56q-41 -66 -93 -179t-116.5 -123.5t-99.5 -10.5h-224v400h326q139 27 197 113q-108 50 -212 51t-140 -26.5
t-42 -2.5t14.5 134t71.5 171t129 63.5t152.5 -44t206 -91t298.5 -25.5q-14 -56 -84 -252q-75 0 -134 -7.5t-119 -40.5q-12 -48 173 -43h226q143 0 164 35q51 87 94 159.5t83 111t68 55.5t61 32t81 15q17 -5 33 -17q32 -35 39.5 -50t19 -51t27.5 -117.5t30 -225.5
q-71 -188 -159 -312q-164 113 -309 208q-59 -136 -85 -171.5t-66.5 -53.5t-80.5 -18z" />
    <glyph glyph-name="dieresis" unicode="&#xf28c;" horiz-adv-x="1548" 
d="M985 1138l-157 -179q-112 48 -191 147l161 194q67 -93 187 -162zM313 -261l-157 -179q-112 48 -191 146l161 194q67 -92 187 -161z" />
    <glyph glyph-name="copyright" unicode="&#xf28d;" horiz-adv-x="1568" 
d="M1327 1138l-157 -179q-112 48 -191 147l161 194q67 -93 187 -162zM675 -1q-165 12 -137 370l-41 -56q-41 -66 -93 -179t-116.5 -123.5t-99.5 -10.5h-223v400h325q139 27 197 113q-108 50 -212 51t-140 -26.5t-42 -2.5t14.5 134t71.5 171t129 63.5t152.5 -44t206 -91
t298.5 -25.5q-14 -56 -84 -252q-75 0 -134 -7.5t-119 -40.5q-12 -48 173 -43h491q-25 134 -105 267l138 244q64 -99 91 -170t39.5 -142.5t11 -131.5t-26.5 -223t-38.5 -203.5t-74.5 -40.5z" />
    <glyph glyph-name="ordfeminine" unicode="&#xf28e;" horiz-adv-x="1544" 
d="M627 1138l-157 -179q-112 48 -191 147l161 194q67 -93 187 -162zM1327 1138l-157 -179q-112 48 -191 147l161 194q67 -93 187 -162zM675 -1q-165 12 -137 370l-41 -56q-41 -66 -93 -179t-116.5 -123.5t-99.5 -10.5h-223v400h325q139 27 197 113q-108 50 -212 51
t-140 -26.5t-42 -2.5t14.5 134t71.5 171t129 63.5t152.5 -44t206 -91t298.5 -25.5q-14 -56 -84 -252q-75 0 -134 -7.5t-119 -40.5q-12 -48 173 -43h491q-25 134 -105 267l138 244q64 -99 91 -170t39.5 -142.5t11 -131.5t-26.5 -223t-38.5 -203.5t-74.5 -40.5z" />
    <glyph glyph-name="guillemotleft" unicode="&#xf28f;" horiz-adv-x="1571" 
d="M1413 -254q-67 -86 -114 -142q-28 -34 -37 -42q-145 93 -181 126q-14 -18 -39 -48l-66 -78q-94 58 -138 90q-33 24 -58 50l154 199q18 -24 72 -68q49 -40 97 -72q28 38 68 85q34 40 49 55q21 -29 53 -55q38 -31 140 -100zM627 -261l-157 -179q-112 48 -191 146l161 194
q67 -92 187 -161zM675 -1q-165 12 -137 370l-41 -56q-41 -66 -93 -179t-116.5 -123.5t-99.5 -10.5h-223v400h325q139 27 197 113q-108 50 -212 51t-140 -26.5t-42 -2.5t14.5 134t71.5 171t129 63.5t152.5 -44t206 -91t298.5 -25.5q-14 -56 -84 -252q-75 0 -134 -7.5
t-119 -40.5q-12 -48 173 -43h491q-25 134 -105 267l138 244q64 -99 91 -170t39.5 -142.5t11 -131.5t-26.5 -223t-38.5 -203.5t-74.5 -40.5z" />
    <glyph glyph-name="logicalnot" unicode="&#xf290;" horiz-adv-x="1579" 
d="M1413 -254q-67 -86 -114 -142q-28 -34 -37 -42q-145 93 -181 126q-14 -18 -39 -48l-66 -78q-94 58 -138 90q-33 24 -58 50l154 199q18 -24 72 -68q49 -40 97 -72q28 38 68 85q34 40 49 55q21 -29 53 -55q38 -31 140 -100zM675 -1q-165 12 -137 370l-41 -56
q-41 -66 -93 -179t-116.5 -123.5t-99.5 -10.5h-223v400h325q139 27 197 113q-108 50 -212 51t-140 -26.5t-42 -2.5t14.5 134t71.5 171t129 63.5t152.5 -44t206 -91t298.5 -25.5q-14 -56 -84 -252q-75 0 -134 -7.5t-119 -40.5q-12 -48 173 -43h491q-25 134 -105 267l138 244
q64 -99 91 -170t39.5 -142.5t11 -131.5t-26.5 -223t-38.5 -203.5t-74.5 -40.5z" />
    <glyph glyph-name="minus" unicode="&#xf291;" horiz-adv-x="1575" 
d="M1413 -254q-67 -86 -114 -142q-28 -34 -37 -42q-145 93 -181 126q-14 -18 -39 -48l-66 -78q-94 58 -138 90q-33 24 -58 50l154 199q18 -24 72 -68q49 -40 97 -72q28 38 68 85q34 40 49 55q21 -29 53 -55q38 -31 140 -100zM627 1179l-157 -179q-112 48 -191 147l161 194
q67 -93 187 -162zM675 -1q-165 12 -137 370l-41 -56q-41 -66 -93 -179t-116.5 -123.5t-99.5 -10.5h-223v400h325q139 27 197 113q-108 50 -212 51t-140 -26.5t-42 -2.5t14.5 134t71.5 171t129 63.5t152.5 -44t206 -91t298.5 -25.5q-14 -56 -84 -252q-75 0 -134 -7.5
t-119 -40.5q-12 -48 173 -43h491q-25 134 -105 267l138 244q64 -99 91 -170t39.5 -142.5t11 -131.5t-26.5 -223t-38.5 -203.5t-74.5 -40.5z" />
    <glyph glyph-name="registered" unicode="&#xf292;" horiz-adv-x="1361" 
d="M1391 393v-393h-126q-94 0 -129 152.5t-82 314.5q-29 -111 -74 -151q-53 -57 -138 -83l1 -47q0 -38 -27.5 -176.5t-81 -203t-88 -87t-113 -52.5t-180.5 -30q-153 0 -233.5 93.5t-80.5 335.5q22 190 67.5 322.5t111.5 186.5q2 -23 -14 -62.5t-36 -117.5
q-35 -92 -22.5 -202t93.5 -151t172.5 -41t185.5 30.5t120 102.5q0 51 -9.5 78t-32.5 91l-75 227l131 291l61 -146q32 -57 117 -57q65 0 91.5 36.5t54 86t39 106.5t31.5 52q65 -408 91.5 -457t88.5 -49h86zM600 1038l-157 -179q-112 48 -191 147l161 194q67 -93 187 -162z
M1248 -320l-157 -179q-112 48 -191 146l161 194q67 -92 187 -161z" />
    <glyph glyph-name="macron" unicode="&#xf293;" horiz-adv-x="1347" 
d="M1385 393v-393h-126q-94 0 -129 152.5t-82 314.5q-29 -111 -74 -151q-53 -57 -138 -83l1 -47q0 -38 -27.5 -176.5t-81 -203t-88 -87t-113 -52.5t-180.5 -30q-153 0 -233.5 93.5t-80.5 335.5q22 190 67.5 322.5t111.5 186.5q2 -23 -14 -62.5t-36 -117.5
q-35 -92 -22.5 -202t93.5 -151t172.5 -41t185.5 30.5t120 102.5q0 51 -9.5 78t-32.5 91l-75 227l131 291l61 -146q32 -57 117 -57q65 0 91.5 36.5t54 86t39 106.5t31.5 52q65 -408 91.5 -457t88.5 -49h86zM983 1135l-57 -70q-12 -14 -21.5 -25.5t-16.5 -17.5l-71 45
q-76 51 -105 81q14 31 72 101l66 78q18 -24 53 -53q31 -25 99 -73l62 77l44 49q26 -35 103 -92l70 -48l-60 -75q-33 -41 -50 -61q-20 -24 -26 -29l-61 38q-63 40 -101 75zM542 1038l-157 -179q-112 48 -191 147l161 194q67 -93 187 -162z" />
    <glyph glyph-name="degree" unicode="&#xf294;" horiz-adv-x="1347" 
d="M1053 -380l-57 -70q-12 -14 -21.5 -25.5t-16.5 -17.5l-71 45q-76 51 -105 81q14 31 72 101l66 78q18 -24 53 -53q31 -25 99 -73l62 77l44 49q26 -35 103 -92l70 -48l-60 -75q-33 -41 -50 -61q-20 -24 -26 -29l-61 38q-63 40 -101 75zM1385 393v-393h-126
q-94 0 -129 152.5t-82 314.5q-29 -111 -74 -151q-53 -57 -138 -83l1 -47q0 -38 -27.5 -176.5t-81 -203t-88 -87t-113 -52.5t-180.5 -30q-153 0 -233.5 93.5t-80.5 335.5q22 190 67.5 322.5t111.5 186.5q2 -23 -14 -62.5t-36 -117.5q-35 -92 -22.5 -202t93.5 -151t172.5 -41
t185.5 30.5t120 102.5q0 51 -9.5 78t-32.5 91l-75 227l131 291l61 -146q32 -57 117 -57q65 0 91.5 36.5t54 86t39 106.5t31.5 52q65 -408 91.5 -457t88.5 -49h86zM574 1038l-157 -179q-112 48 -191 147l161 194q67 -93 187 -162z" />
    <glyph glyph-name="plusminus" unicode="&#xf295;" horiz-adv-x="1401" 
d="M823 -259q-71 -70 -231 -123q-112 -17 -176 -17q-154 10 -251 73q-114 91 -124 208q-20 263 181 536q85 105 105 114.5t25 -16.5q-90 -138 -109 -204q-48 -124 -48 -191q-10 -87 91 -162q98 -57 177 -57q70 -10 190 14q79 21 156 65q-32 69 -161 113l-133 2
q48 194 152 304h65h359l33 1h42l-54 392q-3 45 -15 98q-26 33 -36 48t-21.5 36.5t-9.5 51.5t48 128l76 135q12 0 13.5 -25.5t15 -61t27.5 -52.5t31.5 -34t152.5 -123l-98 -223l8 -178l15 -120l3 -59l2 -70l-29 -159l-27 -110q-23 -83 -85 -75h-92h-87h-41q-5 -33 -18 -64.5
t-37 -92t-85 -102.5z" />
    <glyph glyph-name="twosuperior" unicode="&#xf296;" horiz-adv-x="1451" 
d="M400 537q41 -51 149 -139q-8 99 -21 137t-33 50.5t-45 1t-50 -49.5zM559 806.5q35 -8.5 48.5 -27.5t34 -92.5t41 -131.5t65.5 -110t262 -45h183q-26 134 -116 267l132 244q70 -99 100.5 -170t44.5 -142.5t12 -131.5t-29.5 -223t-42.5 -203.5t-83 -40.5h-377
q-123 0 -189 78q-56 -118 -78.5 -118t-96 57.5t-215.5 208.5q-37 -197 -131 -228h-160l-3 402h147q51 0 78 21t56.5 78t74.5 125.5t86.5 111.5t81 61t74.5 9.5zM1215 -261l-157 -179q-112 48 -191 146l161 194q67 -92 187 -161z" />
    <glyph glyph-name="threesuperior" unicode="&#xf297;" horiz-adv-x="1450" 
d="M404 537q41 -51 149 -139q-8 99 -21 137t-33 50.5t-45 1t-50 -49.5zM563 806.5q35 -8.5 48.5 -27.5t34 -92.5t41 -131.5t65.5 -110t262 -45h183q-26 134 -116 267l132 244q70 -99 100.5 -170t44.5 -142.5t12 -131.5t-29.5 -223t-42.5 -203.5t-83 -40.5h-377
q-123 0 -189 78q-56 -118 -78.5 -118t-96 57.5t-215.5 208.5q-37 -197 -131 -228h-160l-3 402h147q51 0 78 21t56.5 78t74.5 125.5t86.5 111.5t81 61t74.5 9.5zM1193 1178q-67 -86 -114 -142q-28 -34 -37 -42q-145 93 -181 126q-14 -18 -39 -48l-66 -78q-94 58 -138 90
q-33 24 -58 50l154 199q18 -24 72 -68q49 -40 97 -72q28 38 68 85q34 40 49 55q21 -29 53 -55q38 -31 140 -100z" />
    <glyph glyph-name="acute" unicode="&#xf298;" horiz-adv-x="1462" 
d="M400 537q41 -51 149 -139q-8 99 -21 137t-33 50.5t-45 1t-50 -49.5zM559 806.5q35 -8.5 48.5 -27.5t34 -92.5t41 -131.5t65.5 -110t262 -45h183q-26 134 -116 267l132 244q70 -99 100.5 -170t44.5 -142.5t12 -131.5t-29.5 -223t-42.5 -203.5t-83 -40.5h-377
q-123 0 -189 78q-56 -118 -78.5 -118t-96 57.5t-215.5 208.5q-37 -197 -131 -228h-160l-3 402h147q51 0 78 21t56.5 78t74.5 125.5t86.5 111.5t81 61t74.5 9.5zM1145 1138l-157 -179q-112 48 -191 147l161 194q67 -93 187 -162z" />
    <glyph glyph-name="mu" unicode="&#xf299;" horiz-adv-x="1456" 
d="M400 537q41 -51 149 -139q-8 99 -21 137t-33 50.5t-45 1t-50 -49.5zM559 806.5q35 -8.5 48.5 -27.5t34 -92.5t41 -131.5t65.5 -110t262 -45h183q-26 134 -116 267l132 244q70 -99 100.5 -170t44.5 -142.5t12 -131.5t-29.5 -223t-42.5 -203.5t-83 -40.5h-377
q-123 0 -189 78q-56 -118 -78.5 -118t-96 57.5t-215.5 208.5q-37 -197 -131 -228h-160l-3 402h147q51 0 78 21t56.5 78t74.5 125.5t86.5 111.5t81 61t74.5 9.5zM1335 -260q-67 -86 -114 -142q-28 -34 -37 -42q-145 93 -181 126q-14 -18 -39 -48l-66 -78q-94 58 -138 90
q-33 24 -58 50l154 199q18 -24 72 -68q49 -40 97 -72q28 38 68 85q34 40 49 55q21 -29 53 -55q38 -31 140 -100z" />
    <glyph glyph-name="paragraph" unicode="&#xf29a;" horiz-adv-x="1967" 
d="M372 537q41 -51 149 -139q-8 99 -21 137t-33 50.5t-45 1t-50 -49.5zM1469 -261l-157 -179q-112 48 -191 146l161 194q67 -92 187 -161zM531 806.5q35 -8.5 48.5 -27.5t34 -92.5t41 -131.5t65.5 -110t189 -45h-40h352q123 0 191 56q-205 84 -292 79.5t-137 -34.5
t-35.5 61.5t76 204.5t168.5 122q121 -5 298.5 -142t256.5 -142t169 -5l-105 -280q-193 14 -280.5 -34.5t-182.5 -167t-208 -118.5h-271h40h-164q-62 0 -128 78q-56 -118 -78.5 -118t-96 57.5t-215.5 208.5q-37 -197 -131 -228h-160l-3 402h147q51 0 78 21t56.5 78
t74.5 125.5t86.5 111.5t81 61t74.5 9.5z" />
    <glyph glyph-name="periodcentered" unicode="&#xf29b;" horiz-adv-x="1992" 
d="M392 537q41 -51 149 -139q-8 99 -21 137t-33 50.5t-45 1t-50 -49.5zM551 806.5q35 -8.5 48.5 -27.5t34 -92.5t41 -131.5t65.5 -110t189 -45h-40h352q123 0 191 56q-205 84 -292 79.5t-137 -34.5t-35.5 61.5t76 204.5t168.5 122q121 -5 298.5 -142t256.5 -142t169 -5
l-105 -280q-193 14 -280.5 -34.5t-182.5 -167t-208 -118.5h-271h40h-164q-62 0 -128 78q-56 -118 -78.5 -118t-96 57.5t-215.5 208.5q-37 -197 -131 -228h-160l-3 402h147q51 0 78 21t56.5 78t74.5 125.5t86.5 111.5t81 61t74.5 9.5z" />
    <glyph glyph-name="cedilla" unicode="&#xf29c;" horiz-adv-x="1990" 
d="M392 537q41 -51 149 -139q-8 99 -21 137t-33 50.5t-45 1t-50 -49.5zM1489 1179l-157 -179q-112 48 -191 147l161 194q67 -93 187 -162zM551 806.5q35 -8.5 48.5 -27.5t34 -92.5t41 -131.5t65.5 -110t189 -45h-40h352q123 0 191 56q-205 84 -292 79.5t-137 -34.5
t-35.5 61.5t76 204.5t168.5 122q121 -5 298.5 -142t256.5 -142t169 -5l-105 -280q-193 14 -280.5 -34.5t-182.5 -167t-208 -118.5h-271h40h-164q-62 0 -128 78q-56 -118 -78.5 -118t-96 57.5t-215.5 208.5q-37 -197 -131 -228h-160l-3 402h147q51 0 78 21t56.5 78
t74.5 125.5t86.5 111.5t81 61t74.5 9.5z" />
    <glyph glyph-name="onesuperior" unicode="&#xf29d;" horiz-adv-x="495" 
d="M64.5 901q-16.5 28 -38.5 59q-26 40 -21 71t33 88.5t66 119.5q55 92 49.5 50t9.5 -84t127 -163l60 -72l-97 -197l8 -157q9 -61 41 -125.5t105.5 -109.5t82.5 -92q9 -56 -5.5 -206.5t-44.5 -193.5q-102 95 -125 106t-43.5 14t-53.5 3t-115 -10h-136v400h197
q-19 54 -28.5 110.5t-32 208.5t-39 180z" />
    <glyph glyph-name="ordmasculine" unicode="&#xf29e;" horiz-adv-x="1620" 
d="M412 567q41 -61 148 -139q-28 109 -35.5 137t-22.5 45.5t-40 6t-50 -49.5zM1246 554l142 -101q-8 97 -39 139q-25 18 -53.5 9t-49.5 -47zM551 801.5q25 -3.5 38.5 -22.5t34 -92.5t41 -131.5t73.5 -110t82 -45h43q160 0 181 35l93.5 159.5t83 111t68.5 55.5t61 32t80 15
q17 -5 33 -17q32 -35 40 -50t19.5 -51t27.5 -117.5t30 -225.5q-71 -188 -160 -312q-163 113 -308 208q-59 -136 -85 -171.5t-66.5 -53.5t-80.5 -18h-58q-99 0 -165 78q-56 -118 -78.5 -118t-96 57.5t-195.5 188.5q-57 -177 -151 -208h-160l-3 402h147q51 0 77.5 21t56.5 78
t75 125.5t86.5 111.5t76 56t59.5 9.5z" />
    <glyph glyph-name="guillemotright" unicode="&#xf29f;" horiz-adv-x="1441" 
d="M975 731q28 -34 61.5 -46t66.5 -5.5t84 31.5q-29 73 -67.5 95t-78.5 2.5t-66 -77.5zM736 -499l-60 -53q-23 -20 -54 -41q-9 -6 -22 -15q-17 5 -25 7q-25 8 -36 13q-35 16 -59.5 29t-41.5 24l-57 -49q-11 -9 -24 -16.5t-14 -7.5q-13 6 -37 13t-34 12q-76 36 -105 57
q14 21 72 70l66 55q18 -17 52.5 -37.5t96.5 -50.5l65 54l44 34q25 -24 103 -65zM888 710q42 189 124.5 294.5t159.5 76.5q115 -56 192 -285q61 -193 38 -394q-36 -289 -62 -345.5t-75 -56.5h-315q-5 -33 -18 -64.5t-37 -92t-85 -102.5q-71 -70 -231 -123q-112 -17 -176 -17
q-154 10 -251 73q-114 91 -124 208q-20 263 181 536q85 105 105 114.5t25 -16.5q-90 -138 -109 -204q-48 -124 -48 -191q-10 -87 91 -162q98 -57 177 -57q70 -10 190 14q79 21 156 65q-32 69 -161 113l-133 2q48 194 142 304h65h564q-5 47 -42 204q-27 -61 -34 -82.5
t-53.5 -56t-127.5 -25.5t-117.5 66.5t-10.5 203.5zM1071 1238l-157 -179q-112 48 -191 147l161 194q67 -93 187 -162z" />
    <glyph glyph-name="onequarter" unicode="&#xf2a1;" horiz-adv-x="1365" 
d="M539 1028l-103 -190l8 -126q-5 -173 -44 -245q132 114 373 271q97 70 214 90q140 -10 218 -131q49 -79 25 -139q-24 -79 -79 -158h254v-400h-1009t-201 74t-122 201t-39 163t50 -4t187 -34l51 27l-46 452q-5 82 -24 101.5t-30.5 42.5t-7 52t22 76.5t43.5 102t34 44.5
t3 -33.5t24.5 -50.5t53 -52t144.5 -134zM751 400q224 -2 258 52q-31 57 -105.5 97.5t-154.5 1.5q-125 -49 -279 -151h281z" />
    <glyph glyph-name="onehalf" unicode="&#xf2a2;" horiz-adv-x="1213" 
d="M504 1028l-103 -190l8 -126q-5 -173 -44 -245q132 114 373 271q97 70 214 90q140 -10 228 -131q49 -79 30 -168q-29 -79 -61.5 -144t-145 -225t-228.5 -160h-127h-287t-201 74t-122 201t-38.5 163t50 -4t186.5 -34l51 27l-46 452q-5 82 -24 101.5t-30.5 42.5t-7 52
t22 76.5t43.5 102t34 44.5t3 -33.5t24.5 -50.5t53 -52t144.5 -134zM715 401q252 -2 286 52q-31 57 -108.5 97.5t-181.5 1.5q-129 -49 -288 -151h292z" />
    <glyph glyph-name="threequarters" unicode="&#xf2a3;" horiz-adv-x="1052" 
d="M337 1048l-113 -220l18 -116q-5 -173 -44 -245q132 114 372 271q98 70 215 90q140 -10 217 -131q49 -79 40 -168q-110 -254 -220.5 -391.5t-227.5 -137.5h-621v400h112l35 27l-56 472q-5 82 -24.5 101.5t-30.5 42.5t-6.5 37t22 61.5t48.5 112t39 54.5t3 -43.5t24.5 -60.5
t52.5 -52t145 -104zM545 401q244 -2 277 52q-30 57 -105 97.5t-175 1.5q-125 -49 -279 -151h282zM818 1138l-157 -179q-112 48 -191 147l161 194q67 -93 187 -162z" />
    <glyph glyph-name="questiondown" unicode="&#xf2a4;" horiz-adv-x="1201" 
d="M376 1028l-103 -190l8 -126q-5 -173 -44 -245q132 114 373 271q97 70 214 90q140 -10 218 -131q49 -79 25 -139q-24 -79 -79 -158h264v-400h-1134h-168l2 400h156l51 27l-46 452q-5 82 -24 101.5t-30.5 42.5t-7 52t22 76.5t43.5 102t34 44.5t3 -33.5t24.5 -50.5t53 -52
t144.5 -134zM588 400q224 -2 258 52q-31 57 -105.5 97.5t-154.5 1.5q-125 -49 -279 -151h281zM842 1138l-157 -179q-112 48 -191 147l161 194q67 -93 187 -162z" />
    <glyph glyph-name="Agrave" unicode="&#xf2a5;" horiz-adv-x="1344" 
d="M510 1028l-103 -190l8 -126q-5 -173 -44 -245q132 114 373 271q97 70 214 90q140 -10 218 -131q49 -79 25 -139q-24 -79 -79 -158h254v-400h-1009t-201 74t-122 201t-39 163t50 -4t187 -34l51 27l-46 452q-5 82 -24 101.5t-30.5 42.5t-7 52t22 76.5t43.5 102t34 44.5
t3 -33.5t24.5 -50.5t53 -52t144.5 -134zM722 400q224 -2 258 52q-31 57 -105.5 97.5t-154.5 1.5q-125 -49 -279 -151h281zM976 1138l-157 -179q-112 48 -191 147l161 194q67 -93 187 -162z" />
    <glyph glyph-name="Aacute" unicode="&#xf2a6;" horiz-adv-x="1210" 
d="M504 1028l-103 -190l8 -126q-5 -173 -44 -245q132 114 373 271q97 70 214 90q140 -10 228 -131q49 -79 30 -168q-29 -79 -61.5 -144t-145 -225t-228.5 -160h-127h-287t-201 74t-122 201t-38.5 163t50 -4t186.5 -34l51 27l-46 452q-5 82 -24 101.5t-30.5 42.5t-7 52
t22 76.5t43.5 102t34 44.5t3 -33.5t24.5 -50.5t53 -52t144.5 -134zM715 401q252 -2 286 52q-31 57 -108.5 97.5t-181.5 1.5q-129 -49 -288 -151h292zM948 1138l-157 -179q-112 48 -191 147l161 194q67 -93 187 -162z" />
    <glyph glyph-name="Acircumflex" unicode="&#xf2a7;" horiz-adv-x="942" 
d="M771 11q-157 -1 -445 -11h-369v400h173l-8 54q-8 83 49.5 157.5t147.5 155.5t189.5 97t190.5 -81.5t108.5 -176.5t-34.5 -26.5t-148 68t-177.5 2.5t-134.5 -61q87 -152 238 -189l384 10l-127 -366q-9 -26 -37 -33z" />
    <glyph glyph-name="Atilde" unicode="&#xf2a8;" horiz-adv-x="768" 
d="M801 0h-204h-80h-40q-39 0 -98 140q-52 -140 -100 -140h-46h-94h-177v400h331q-8 22 -27 42q-10 11 -16 17q-14 13 -31 22t-69.5 16t-73.5 1t-16 14.5t82 236.5q123 52 237 52q97 10 189 -52q108 -86 104 -171q-4 -27 -31 -110l-28 -68h188v-400z" />
    <glyph glyph-name="Adieresis" unicode="&#xf2a9;" horiz-adv-x="814" 
d="M90 507q33 169 72 301q149 83 253.5 80t174.5 -67q98 -63 68 -192l-61 -157q19 -40 72.5 -56t102.5 -16h99v-400l-202 1q-107 0 -170 77q-63 57 -106 257q-57 -31 -116.5 -134.5t-81.5 -204.5q17 -202 167 -249t235 -47t134.5 1t70.5 -3q-159 -219 -329 -240
q-175 -10 -267 51q-194 112 -165 423q33 229 271 525q-67 106 -222 50z" />
    <glyph glyph-name="Aring" unicode="&#xf2aa;" horiz-adv-x="788" 
d="M46 544q14 98 59 222q37 98 82 165q58 74 124 77q49 3 124 -40t90 -106q-97 34 -166.5 14t-122.5 -61.5t-68 -75t73 -109.5q36 -19 83.5 -21.5t144.5 43.5l175 87q-24 -104 -25 -111q-15 -65 -35 -156q-221 -99 -336 -250q-78 -92 -73 -203q-14 -245 486 -221h155
q-146 -180 -189 -207.5t-204 -58.5q-168 1 -250 56q-115 66 -120 256q-4 109 43.5 274t91.5 231q-66 38 -95 73q-45 50 -47 122z" />
    <glyph glyph-name="AE" unicode="&#xf2ab;" horiz-adv-x="933" 
d="M770 11q-157 -1 -445 -11h-369v400h173l-8 54q-8 83 49.5 157.5t147.5 155.5t189.5 97t190.5 -81.5t108.5 -176.5t-34.5 -26.5t-148 68t-177.5 2.5t-134.5 -61q87 -152 238 -189l384 10l-127 -366q-9 -26 -37 -33zM647 1179l-157 -179q-112 48 -191 147l161 194
q67 -93 187 -162z" />
    <glyph glyph-name="Ccedilla" unicode="&#xf2ac;" horiz-adv-x="767" 
d="M816 0h-204h-80h-40q-39 0 -98 140q-52 -140 -100 -140h-46h-94h-177v400h331q-8 22 -27 42q-10 11 -16 17q-14 13 -31 22t-69.5 16t-73.5 1t-16 14.5t82 236.5q123 52 237 52q97 10 189 -52q108 -86 104 -171q-4 -27 -31 -110l-28 -68h188v-400zM565 1170l-157 -179
q-113 48 -191 147l160 194q67 -93 188 -162z" />
    <glyph glyph-name="Egrave" unicode="&#xf2ad;" horiz-adv-x="801" 
d="M84 507q33 169 72 301q149 83 253.5 80t174.5 -67q98 -63 68 -192l-61 -157q19 -40 72.5 -56t102.5 -16h99v-400l-202 1q-107 0 -170 77q-63 57 -106 257q-57 -31 -116.5 -134.5t-81.5 -204.5q17 -202 167 -249t235 -47t134.5 1t70.5 -3q-159 -219 -329 -240
q-175 -10 -267 51q-194 112 -165 423q33 229 271 525q-67 106 -222 50zM505 1190l-158 -179q-112 48 -191 147l161 194q67 -93 188 -162z" />
    <glyph glyph-name="Eacute" unicode="&#xf2ae;" horiz-adv-x="793" 
d="M33 544q14 98 59 222q37 98 82 165q58 74 124 77q49 3 124 -40t90 -106q-97 34 -166.5 14t-122.5 -61.5t-68 -75t73 -109.5q36 -19 83.5 -21.5t144.5 43.5l175 87q-24 -104 -25 -111q-15 -65 -35 -156q-221 -99 -336 -250q-78 -92 -73 -203q-14 -245 486 -221h155
q-146 -180 -189 -207.5t-204 -58.5q-168 1 -250 56q-115 66 -120 256q-4 109 43.5 274t91.5 231q-66 38 -95 73q-45 50 -47 122zM471 1248l-157 -179q-112 48 -191 147l161 194q67 -93 187 -162z" />
    <glyph glyph-name="Ecircumflex" unicode="&#xf2af;" horiz-adv-x="720" 
d="M319 754.5q-19 -21.5 0.5 -42.5t46 -30t55 -7.5t63.5 26.5q-23 55 -53.5 71.5t-61.5 10t-50 -28zM-38 400h600q0 80 -39 185q-15 -56 -25 -80.5t-47 -51.5t-107.5 -19t-112 61t-17.5 187q45 173 122 265t145 65q101 -41 168 -251q54 -177 32 -362q-30 -295 -53 -347
t-65 -52h-601v400zM410 1179l-157 -179q-112 48 -191 147l161 194q67 -93 187 -162z" />
    <glyph glyph-name="Edieresis" unicode="&#xf2b0;" horiz-adv-x="764" 
d="M607 818q48 -97 22 -272l-35 -146h117h94v-400h-347h-283h-231v400h178q-36 70 95 246t236.5 222.5t153.5 -50.5zM294 550.5q-31 -24.5 -29.5 -40.5t27.5 -55.5t87 -51.5q87 13 137 77q0 19 -14 45.5t-44 59.5t-81.5 11.5t-82.5 -46zM486 1179l-157 -179
q-112 48 -191 147l161 194q67 -93 187 -162z" />
    <glyph glyph-name="Igrave" unicode="&#xf2b1;" horiz-adv-x="1438" 
d="M1230.5 882q30.5 0 60 -62.5t18.5 -273.5l-34 -146h110h88v-400h-317h-275h-460h-96q-152 -11 -226 67t-78 251.5t25.5 276.5t58 172t46.5 86.5t4 -41.5q-30 -135 -32 -173.5t3.5 -93.5t40 -100t186.5 -45h497q-2 32 5.5 65t39.5 94t76 126.5t88 110.5q43 46 92 66
t79.5 20zM1014.5 550.5q-26.5 -24.5 -25.5 -40.5t23 -55.5t55 -51.5q92 13 134 77q0 19 -11.5 45.5t-37 59.5t-68.5 11.5t-69.5 -46zM1243 1179l-157 -179q-112 48 -191 147l161 194q67 -93 187 -162z" />
    <glyph glyph-name="Iacute" unicode="&#xf2b2;" horiz-adv-x="1068" 
d="M692 754.5q-19 -21.5 0.5 -42.5t46 -30t55 -7.5t63.5 26.5q-23 55 -53.5 71.5t-61.5 10t-50 -28zM107 61q-91 68 -91.5 243.5t26 265.5t52 150t46.5 75.5t9 -36.5q-26 -118 -28 -151.5t2 -81.5t35 -87.5t157 -41.5h614q6 83 -33 188q-15 -56 -25 -80.5t-47 -51.5
t-107.5 -19t-112 61t-17.5 187q45 173 122 265t145 65q101 -41 168 -251q54 -177 32 -362q-30 -295 -53 -347t-65 -52h-601q-137 -7 -228 61zM795 1179l-157 -179q-112 48 -191 147l161 194q67 -93 187 -162z" />
    <glyph glyph-name="Icircumflex" unicode="&#xf2b3;" horiz-adv-x="726" 
d="M599 1254l-67 -84q-68 -85 -84 -100l-68 43q-77 50 -113 83l-62 -76l-43 -50l-79 50q-85 57 -117 90q17 36 80 113l74 86q26 -35 106 -95q10 -8 41 -40q14 -15 22 -20q35 50 70 101l47 54q31 -41 115 -102zM327 754.5q-19 -21.5 0.5 -42.5t46 -30t55 -7.5t63.5 26.5
q-23 55 -53.5 71.5t-61.5 10t-50 -28zM-40 400h610q0 80 -39 185q-15 -56 -25 -80.5t-47 -51.5t-107.5 -19t-112 61t-17.5 187q45 173 122 265t145 65q101 -41 168 -251q54 -177 32 -362q-30 -295 -53 -347t-65 -52h-611v400z" />
    <glyph glyph-name="Idieresis" unicode="&#xf2b4;" horiz-adv-x="792" 
d="M664 1194l-67 -84q-68 -85 -84 -100l-68 43q-77 50 -113 83l-62 -76l-43 -50l-79 50q-85 57 -117 90q17 36 80 113l74 86q26 -35 106 -95q10 -8 41 -40q14 -15 22 -20q35 50 70 101l47 54q31 -41 115 -102zM625 818q48 -97 22 -272l-35 -146h117h94v-400h-347h-283h-231
v400h178q-36 70 95 246t236.5 222.5t153.5 -50.5zM312 550.5q-31 -24.5 -29.5 -40.5t27.5 -55.5t87 -51.5q87 13 137 77q0 19 -14 45.5t-44 59.5t-81.5 11.5t-82.5 -46z" />
    <glyph glyph-name="Eth" unicode="&#xf2b5;" horiz-adv-x="965" 
d="M398 -101q122 0 217 14q142 43 142 62.5t-1 24.5q-110 0 -184 34q-119 46 -129 179q10 163 49 315q40 130 88 210q84 128 143 88q66 -40 114 -156q40 -123 58 -270h108v-400h-117q-29 -87 -70 -227q-62 -92 -138 -141q-104 -61 -278 -61q-155 0 -261 82q-118 99 -111 332
q0 113 71 345q94 256 158 256q-116 -268 -116 -432q0 -128 84 -190q77 -65 173 -65zM640 550q-37 0 -72 -54q0 -89 167 -89q-21 69 -41 101t-54 42zM822 1195l-67 -84q-68 -85 -84 -100l-68 43q-77 50 -113 83l-62 -76l-43 -50l-79 50q-85 57 -117 90q17 36 80 113l74 86
q26 -35 106 -95l63 -45q28 38 70 86l47 54q31 -41 115 -102z" />
    <glyph glyph-name="Ntilde" unicode="&#xf2b6;" horiz-adv-x="1020" 
d="M750 893q29 4 68 -24t58.5 -59t44 -94t42.5 -135t24.5 -120.5t4 -155.5t-4.5 -128t-15 -71l-18 -93l-30 -72q-19 -26 -36.5 -40t-46 -38.5t-42.5 -34.5t-33 -19.5t-50 -29t-108.5 -46t-159 -36.5t-123 -7t-97.5 17t-110 67t-70 117t-9 145.5t11.5 109.5t19.5 76
q9 38 26 78q14 34 35 87.5t41.5 90t59.5 104.5q13 23 22 33.5t25.5 1t-5 -49.5t-53.5 -122t-35 -193l4 -53q11 -36 35 -68q23 -29 58 -49q29 -17 70 -29q41 -8 93 -9l93 9q131 28 233.5 86t111.5 96l-5 51l-26 82l-22 39l-14 -48q-16 -35 -44 -64q-28 -26 -51.5 -32.5
t-61 -6.5t-79.5 22t-54 40.5t-27 59.5q-9 47 -9 102q14 120 83 244l40 63l49 53q22 23 40 36t47 17zM601 592q16 -40 34.5 -54t47.5 -19.5t82 20.5q-19 54 -43.5 77t-50 22t-70.5 -46zM839 1185l-67 -84q-68 -85 -84 -100l-68 43q-77 50 -113 83l-62 -76l-43 -50l-79 50
q-85 57 -117 90q17 36 80 113l74 86q26 -35 106 -95l63 -45q28 38 70 86l47 54q31 -41 115 -102z" />
    <glyph glyph-name="Ograve" unicode="&#xf2b7;" horiz-adv-x="1642" 
d="M1519 -2l-1577 2v400h1469q-33 62 -72.5 81t-108.5 26q-116 -4 -367 -18q-155 -11 -264 -9q-394 2 -475 55q-40 24 -40 72q0 111 109 231q140 174 372 316q102 61 205 99l126 48q-59 -115 -134 -256q-50 -9 -149 -60q-75 -41 -152 -80q-55 -28 -121 -77q-71 -43 -87 -64
q-1 -13 273 -25t512 16q144 22 304 5q75 -18 134 -74q61 -67 93.5 -124.5t48.5 -164.5z" />
    <glyph glyph-name="Oacute" unicode="&#xf2b8;" horiz-adv-x="1756" 
d="M1545 116q-39 -98 -54 -118h-1535v402h1465q-25 59 -63.5 79t-134 22t-343.5 -10q-158 -9 -267 -9q-394 0 -475 53q-40 24 -40 72q0 111 109 231q140 174 372 316q102 61 205 99l126 48l-134 -256q-50 -9 -149 -60q-75 -41 -152 -80q-55 -28 -121 -77q-80 -53 -85 -64
q27 -14 284.5 -24.5t508.5 15.5q95 10 214.5 12.5t189.5 -54t116 -135t55 -143.5q1 -24 12 -32l21 -3h126v-400h-112q-95 -4 -139 116z" />
    <glyph glyph-name="Ocircumflex" unicode="&#xf2b9;" horiz-adv-x="1324" 
d="M548.5 1069q-44.5 -60 -76.5 -126.5t-35.5 -115t37.5 -60.5t78.5 -13t83.5 -7q-38 -40 -168 -92t-91 -55l60 7l183 20q54 51 84.5 116.5t26.5 109t-74.5 45.5t-137.5 26q55 80 126 133q17 53 26 143q-78 -71 -122.5 -131zM957 0h-118h-570q-89 0 -169 72q-84 87 -74 308
q-1 10 -1 22q0 87 42 250q56 185 105 201q-14 -89 -31 -182q-27 -161 -14 -200t63 -55t105 -16h545h165l-6 87q-15 147 -48 564l149 257q50 -677 59.5 -749.5t20 -116.5t80.5 -42h103l3 -400h-174q-106 0 -156 242z" />
    <glyph glyph-name="Otilde" unicode="&#xf2ba;" horiz-adv-x="1319" 
d="M554.5 1068.5q-45.5 -65.5 -69.5 -132.5t-27.5 -116.5t38 -61.5t71.5 -13.5t59 -6.5q-37 -41 -168.5 -93.5t-92.5 -55.5l61 7l185 21q55 51 81.5 127.5t26.5 115.5t-63 46t-107 21q32 71 88 125q16 53 25 144q-62 -62 -107.5 -127.5zM166 0q-70 4 -108 29q-30 29 -30 209
q0 29 4 64q14 134 25.5 137.5t24.5 -16t72 -23.5h920l-41 383q-3 45 -15 98q-16 33 -26 48t-21.5 36.5t-9 51.5t37.5 128l56 155q12 0 13.5 -35.5t15 -71t27.5 -52.5t31.5 -34t162.5 -123l-98 -223l1 -128l4 -120l2 -59l-6 -60q-44 -402 -106 -394h-936z" />
    <glyph glyph-name="Odieresis" unicode="&#xf2bb;" horiz-adv-x="474" 
d="M233 1290q12 0 13.5 -25.5t15 -61t27.5 -52.5t31.5 -34t152.5 -123l-98 -223l8 -178l15 -120l3 -59l2 -70l-29 -159l-27 -110q-23 -83 -85 -75h-314v401h255h42l-54 392q-3 45 -15 98q-26 33 -36 48t-21.5 36.5t-9.5 51.5t48 128z" />
    <glyph glyph-name="multiply" unicode="&#xf2bc;" horiz-adv-x="531" 
d="M287 1308q60 -747 61 -802t27 -84t194 -22v-400h-157q-163 0 -187 236l-96 -236h-152l1 400h104h96q-5 197 -12 255.5t-25 395.5z" />
    <glyph glyph-name="Oslash" unicode="&#xf2bd;" horiz-adv-x="1159" 
d="M1194 400v-400h-97q-143 6 -194 124q-48 -211 -78.5 -257.5t-105.5 -133.5q-110 -99 -280 -109q-140 -11 -233 47t-130 129.5t-41.5 197t57.5 293.5t98 217t49.5 40.5t-12.5 -60.5q-55 -134 -72 -263q8 -136 104 -204q124 -58 297 -27t223 129l-67 896l153 289
q62 -690 71.5 -755t33.5 -109t224 -44z" />
    <glyph glyph-name="Ugrave" unicode="&#xf2be;" horiz-adv-x="998" 
d="M963 985l-110 -222l44 -539q0 -33 -22 -215q-21 -125 -30 -144q-8 -15 -15 -26q-3 -6 -14 -20q-36 -39 -82 -75q-35 -37 -132 -78t-221 -41q-84 0 -143.5 21.5t-104.5 65.5q-87 85 -87 231q0 64 12 169t64.5 224t89.5 162q35 5 -11 -133.5t-32 -232t90.5 -117
t144.5 -23.5q104 0 227 46.5t123 96.5l-86 692q-8 81 -29.5 99.5t-34.5 41t-9 51t22 76t45 117t45 80.5q0 -86 33.5 -121.5t59.5 -59.5t163 -126z" />
    <glyph glyph-name="Uacute" unicode="&#xf2bf;" horiz-adv-x="755" 
d="M576 808q17 -5 33 -17q32 -35 39.5 -50t19 -51t27.5 -117.5t30 -225.5q-71 -188 -159 -312q-164 113 -309 208q-59 -136 -85 -171.5t-66.5 -53.5t-80.5 -18h-60v400h43q160 0 181 35q51 87 94 159.5t83 111t68 55.5t61 32t81 15zM392 554l142 -101q-9 97 -40 139
q-24 18 -53 9t-49 -47z" />
    <glyph glyph-name="Ucircumflex" unicode="&#xf2c0;" horiz-adv-x="917" 
d="M373 537q41 -51 149 -139q-8 99 -21 137t-33 50.5t-45 1t-50 -49.5zM532 806.5q35 -8.5 48.5 -27.5t34 -92.5t41 -131.5t65.5 -110t239 -45v-400h-214q-62 0 -128 78q-56 -118 -78.5 -118t-96 57.5t-215.5 208.5q-37 -197 -131 -228h-170l-3 402h157q51 0 78 21t56.5 78
t74.5 125.5t86.5 111.5t81 61t74.5 9.5z" />
    <glyph glyph-name="Udieresis" unicode="&#xf2c1;" horiz-adv-x="912" 
d="M547.5 808.5q48.5 4.5 90.5 -146t79 -191.5t70 -59t166 -12v-400q-192 -12 -260 71l-47 -130q-360 190 -372 226t30 236q-91 -71 -115.5 -107.5t-24.5 -60.5t15.5 -103.5t26.5 -253.5t-15.5 -233t-69.5 -118q-31 283 -65.5 484t-14 300.5t50 156.5t64 102t93 92.5
t154.5 94.5t144.5 51.5zM474 520.5q-35 -6.5 -84 -41.5q80 -63 181 -109q-21 44 -41.5 100.5t-55.5 50z" />
    <glyph glyph-name="Yacute" unicode="&#xf2c2;" horiz-adv-x="686" 
d="M327.5 801.5q31.5 -10.5 55 -27.5t59 -53t113 -143.5t123.5 -151.5l-43 -158l-43 -167q-195 39 -253.5 25.5t-93.5 -27.5t-64 -64q35 -218 35.5 -277.5t-23.5 -126t-66 -113.5l-14 -9l-59 522q-4 28 -4 63l-1 68q16 100 30.5 143t38.5 71t76.5 55.5t139.5 44.5
q-36 43 -76 54.5t-74 -6t-58.5 -44.5t-20 17t25.5 115.5t39.5 104.5t42 52.5t53.5 31t61.5 1z" />
    <glyph glyph-name="Thorn" unicode="&#xf2c3;" horiz-adv-x="535" 
d="M350 911q71 -99 101.5 -170t44.5 -142.5t12 -131.5t-30 -223t-43 -203.5t-83 -40.5h-402v400h385q-27 134 -116 267zM359 1190l-157 -179q-112 48 -191 147l161 194q67 -93 187 -162z" />
    <glyph glyph-name="germandbls" unicode="&#xf2c4;" horiz-adv-x="618" 
d="M34 0h-94v400h102h168q4 85 17 180q165 225 177 192.5t5 -119t-19.5 -145t-1.5 -77t30.5 -25t60.5 -6.5h171v-400q-192 -2 -243 2t-94.5 27.5t-79.5 110.5l-75 -140h-124zM450 1138l-157 -179q-112 48 -191 147l161 194q67 -93 187 -162z" />
    <glyph glyph-name="agrave" unicode="&#xf2c5;" horiz-adv-x="1105" 
d="M1159 400v-400h-180q-71 0 -112 36q-12 -67 -37.5 -165.5t-62.5 -148.5t-142 -104t-219 -64q-359 -10 -387 279q-10 52 11.5 173.5t84.5 253.5q80 155 114 167q16 -31 -4 -85t-33 -98t-26 -93.5t13 -122t158 -96.5q124 -32 277 26q127 48 149 85q0 47 -22.5 99.5
t-61.5 121.5t-88 132l141 326q63 -99 99.5 -160.5t87 -111.5t240.5 -50zM605 938l-157 -179q-112 48 -191 147l161 194q67 -93 187 -162z" />
    <glyph glyph-name="aacute" unicode="&#xf2c6;" horiz-adv-x="928" 
d="M619 420l131 303q170 -203 170 -462q8 -92 -15 -193q-33 -192 -106 -286q-35 -49 -151.5 -106t-174.5 -65q-397 -50 -429 237q-16 99 6 219.5t87 254.5q63 144 116 179q-11 -50 -47 -151q-30 -97 -29 -180q17 -164 159 -202q111 -10 164.5 -0.5t153.5 42.5
q113 54 132 104q-77 181 -167 306zM600 938l-157 -179q-112 48 -191 147l161 194q67 -93 187 -162z" />
    <glyph glyph-name="acircumflex" unicode="&#xf2c7;" horiz-adv-x="766" 
d="M303 990q37 11 127.5 -53t178.5 -175t137 -240q4 -22 13 -48l7 -54l-5 -116l-10 -51l-28 -193l-35 -81q-11 -16 -30 -21h-31l-65 12q-20 4 -43 12q-18 4 -40 12q-19 7 -43 12l-75 33q-14 -4 -30 -15l-37 -18q-20 -5 -46 -6h-275v400h140l-6 23q0 18 7 48l11 48
q6 19 32 87q53 115 86 147q1 117 19 172t41 65zM337 626q-18 -5 -38 -18l-59 -51l-25 -32l-10 -24q1 -7 8 -15l27 -27l74 -33l44 3v3q17 6 35 18l31 24q13 13 14 36l-14 41l-20 39l-29 27q-16 9 -38 9zM530 557v-50l-3 -6l-8 -45l-18 -36l-17 -15l8 -9l148 -45l36 -6
q-3 19 -13 42l-58 96l-48 53q-10 11 -27 21z" />
    <glyph glyph-name="atilde" unicode="&#xf2c8;" horiz-adv-x="775" 
d="M491 723q-45 -29 -142 -167q-31 -44 -83 -131q23 0 105 43.5t102 65.5q26 29 26 125q0 44 -8 64zM256 60q2 -26 40 -75.5t60 -63.5q43 -25 124 -25h22q0 37 -30 75q-26 32 -59 48q-98 44 -142 44q-7 0 -15 -3zM224 590q217 359 399 359l20 -81q0 -114 -19 -196
q-16 -66 -47 -153l-52 -119h311v-400h-190q-32 -181 -74 -256q-72 -133 -201 -133q-117 0 -198 123q-77 116 -87 266h-132v400h177q25 54 36 86q32 62 57 104z" />
    <glyph glyph-name="adieresis" unicode="&#xf2c9;" horiz-adv-x="965" 
d="M654 1103q54 -184 80 -389.5t52 -255.5t67 -54t151 -4v-400l-67 1q-94 -10 -190 53t-131 314q-45 -132 -82 -192q-70 -60 -256 -26q-203 27 -189 89q37 175 63 242.5t109 110.5l288 200l-18 104zM564 672q-57 -107 -229 -178q101 -23 179 -14t80 34z" />
    <glyph glyph-name="aring" unicode="&#xf2ca;" horiz-adv-x="583" 
d="M582 408q-18 -77 -47 -163.5t-97 -147.5q-77 -67 -168 -86t-155 18t-83.5 124.5t17 214t106 275t102.5 240.5q180 -82 268 -195t57 -280zM410 414q-62 109 -194 137q-38 -63 -43 -101.5t51.5 -67.5t185.5 32z" />
    <glyph glyph-name="ae" unicode="&#xf2cb;" horiz-adv-x="645" 
d="M443 425q-10 34 -38.5 63t-62.5 32q-28 -4 -54.5 -37t-27.5 -57q25 -33 61.5 -42.5t62 0.5t59.5 41zM561 622q8 -21 14.5 -45.5t12.5 -62.5q12 -65 14 -140q4 -87 -4 -164q-3 -42 -9 -84t-16 -92q-30 -151 -84 -249q-67 -126 -169 -159q-9 -4 -31 -5q-86 -3 -221 22
q-151 28 -203 71q3 6 5 8l9 6q66 3 125 14q73 15 142 44q118 53 230 183q130 148 125 273l-10 -23l-12 -29q-19 -55 -41 -77q-28 -28 -85 -36l-16 -2h-11q-51 -2 -91 18t-63 67q-18 36 -21 112q-3 80 14 167.5t91 228.5q53 72 90 112q34 35 59 36q20 1 37.5 -10t37.5 -34
q44 -51 81 -150z" />
    <glyph glyph-name="ccedilla" unicode="&#xf2cc;" horiz-adv-x="676" 
d="M287.5 510q-17.5 -17 -32.5 -44q8 -60 161 -66q-22 65 -47 95t-44.5 31t-37 -16zM727 0h-206q-24 -94 -46 -149q-25 -68 -60 -121q-10 -15 -23.5 -29.5t-35.5 -33.5q-39 -36 -59 -39l-44 -3q-91 0 -209.5 30.5t-189.5 87.5q-17 14 -13 17.5t18 0.5l41 -8q45 -5 107.5 2.5
t133.5 40.5q82 38 139 89q62 55 113 144l-26 -7l-46 -10q-96 -2 -142 35t-60 87l-7 34l-2 44q0 76 22 167q14 57 37.5 124t57.5 145q23 51 59 89q44 45 89 45q42 0 71 -38q9 -12 45 -84q21 -44 45 -143q11 -48 17 -70.5t9 -46.5h165v-400z" />
    <glyph glyph-name="egrave" unicode="&#xf2cd;" horiz-adv-x="576" 
d="M377 911q71 -99 101.5 -170t44.5 -142.5t12 -131.5t-30 -223t-43 -203.5t-83 -40.5h-444v400h427q-27 134 -116 267zM505 -262l-67 -84q-68 -85 -84 -100l-68 43q-77 50 -113 83l-62 -76l-43 -50l-79 50q-85 57 -117 90q17 36 80 113l74 86q26 -35 106 -95l63 -45
q33 44 70 87l47 53q31 -41 115 -102z" />
    <glyph glyph-name="eacute" unicode="&#xf2ce;" horiz-adv-x="596" 
d="M615 -253l-67 -84q-68 -85 -84 -100l-68 43q-77 50 -113 83l-62 -76l-43 -50l-79 50q-85 57 -117 90q17 36 80 113l74 86q13 -18 61 -53q28 -21 57 -42q12 -9 27 -24t24 -21q33 44 70 87l47 53q31 -41 115 -102zM82 0h-144v400h152h168q4 85 17 180q165 225 177 192.5
t5 -119t-19.5 -145t-1.5 -77t30.5 -25t60.5 -6.5h118v-400q-139 -2 -190 2t-94.5 27.5t-79.5 110.5l-75 -140h-124z" />
    <glyph glyph-name="ecircumflex" unicode="&#xf2cf;" horiz-adv-x="1040" 
d="M817 -259q-71 -70 -231 -123q-112 -17 -176 -17q-154 10 -251 73q-114 91 -124 208q-20 263 181 536q85 105 105 114.5t25 -16.5q-90 -138 -109 -204q-48 -124 -48 -191q-10 -87 91 -162q98 -57 177 -57q70 -10 190 14q79 21 156 65q-32 69 -161 113l-133 2
q48 194 152 304h65h359v-400h-87h-41q-5 -33 -18 -64.5t-37 -92t-85 -102.5zM743 -499l-60 -53q-23 -20 -54 -41q-9 -6 -22 -15q-17 5 -25 7q-25 8 -36 13q-35 16 -59.5 29t-41.5 24l-57 -49q-11 -9 -24 -16.5t-14 -7.5q-13 6 -37 13t-34 12q-76 36 -105 57q14 21 72 70
l66 55q18 -17 52.5 -37.5t96.5 -50.5l65 54l44 34q25 -24 103 -65z" />
    <glyph glyph-name="edieresis" unicode="&#xf2d0;" horiz-adv-x="977" 
d="M469 367q-1 117 65 290q53 155 141 263q105 139 221 161q72 2 81 -120q2 -101 -28 -191q-8 -8 -19.5 23t-40.5 42.5t-54 -0.5q-67 -16 -160 -96q-74 -65 -90 -134q20 -40 112 -57q84 -13 170 -27q91 -27 77 -137q-4 -94 -11.5 -135.5t-21.5 -110.5t-32 -91
q-188 -269 -482 -288q-381 5 -384 375q4 150 39 275q30 118 58 189t54.5 103.5t33.5 18t-19 -83.5q-91 -264 -63 -334q16 -111 142 -180q103 -46 204 -37q82 8 196 29q112 53 161 83q-1 37 -90 45q-120 10 -157 20q-98 26 -103 105zM696 -396l-60 -75q-33 -41 -50 -61
q-20 -24 -26 -29l-61 38q-63 40 -101 75l-57 -69q-28 -36 -38 -44l-71 45q-76 51 -105 81q14 31 72 101l66 78q18 -24 53 -53q31 -25 99 -73l62 77l44 49q26 -35 103 -92z" />
    <glyph glyph-name="igrave" unicode="&#xf2d1;" horiz-adv-x="625" 
d="M592 408q-18 -77 -47 -163.5t-97 -147.5q-77 -67 -168 -86t-155 18t-83.5 124.5t17 214t106 275t102.5 240.5q180 -82 268 -195t57 -280zM420 414q-62 109 -194 137q-38 -63 -43 -101.5t51.5 -67.5t185.5 32zM631 1190l-67 -84q-68 -85 -84 -100l-68 43q-77 50 -113 83
l-62 -76l-43 -50l-79 50q-85 57 -117 90q17 36 80 113l74 86q26 -35 106 -95q10 -8 41 -40q14 -15 22 -20q35 50 70 101l47 54q31 -41 115 -102z" />
    <glyph glyph-name="iacute" unicode="&#xf2d2;" horiz-adv-x="941" 
d="M631 1197l-67 -84q-68 -85 -84 -100l-68 43q-77 50 -113 83l-62 -76l-43 -50l-79 50q-85 57 -117 90q17 36 80 113l74 86q13 -18 61 -53q28 -21 57 -42q12 -9 27 -24t24 -21q33 44 70 87l47 53q31 -41 115 -102zM626 1103q54 -184 80 -389.5t52 -255.5t67 -54t151 -4
v-400l-67 1q-94 -10 -190 53t-131 314q-45 -132 -82 -192q-70 -60 -256 -26q-203 27 -189 89q37 175 63 242.5t109 110.5l288 200l-18 104zM536 672q-57 -107 -229 -178q101 -23 179 -14t80 34z" />
    <glyph glyph-name="icircumflex" unicode="&#xf2d3;" horiz-adv-x="1062" 
d="M819 -259q-71 -70 -231 -123q-112 -17 -206 -17q-154 10 -251 73q-114 91 -124 208q-20 263 181 536q85 105 105 114.5t25 -16.5q-90 -138 -109 -204q-48 -124 -48 -191q-10 -87 91 -162q98 -57 207 -57q70 -10 190 14q79 21 156 65q-32 69 -161 113l-133 2
q48 194 162 304h65h364v-400h-102h-41q-5 -33 -18 -64.5t-37 -92t-85 -102.5z" />
    <glyph glyph-name="idieresis" unicode="&#xf2d4;" horiz-adv-x="1002" 
d="M494 367q-1 117 65 290q53 155 141 263q105 139 221 161q72 2 81 -120q2 -101 -28 -191q-8 -8 -19.5 23t-40.5 42.5t-54 -0.5q-67 -16 -160 -96q-74 -65 -90 -134q20 -40 112 -57q84 -13 170 -27q91 -27 77 -137q-4 -94 -11.5 -135.5t-21.5 -110.5t-32 -91
q-188 -269 -482 -288q-381 5 -384 375q4 150 39 275q30 118 58 189t54.5 103.5t33.5 18t-19 -83.5q-91 -264 -63 -334q16 -111 142 -180q103 -46 204 -37q82 8 196 29q112 53 161 83q-1 37 -90 45q-120 10 -157 20q-98 26 -103 105z" />
    </font>
</defs>
</svg>
